<svg width="81" height="51" viewBox="0 0 81 51" fill="none" xmlns="http://www.w3.org/2000/svg">
<path d="M76.3663 20.9536L76.4926 20.9739H22.3539L39.3732 8.47749C40.2066 7.86739 40.6637 7.04091 40.6637 6.17348C40.6637 5.30604 40.2066 4.48535 39.3732 3.87381L36.725 1.93268C35.8922 1.32258 34.7826 0.985245 33.5992 0.985245C32.4152 0.985245 31.3049 1.32017 30.4722 1.93027L1.29797 23.3025C0.461938 23.915 0.0047854 24.7308 0.00807426 25.5988C0.0047854 26.4715 0.461938 27.2878 1.29797 27.8994L30.4722 49.2735C31.3049 49.8831 32.4146 50.2185 33.5992 50.2185C34.7826 50.2185 35.8922 49.8826 36.725 49.2735L39.3732 47.3324C40.2066 46.7232 40.6637 45.9098 40.6637 45.0423C40.6637 44.1754 40.2066 43.4048 39.3732 42.7952L22.1619 30.2289H76.4269C78.8652 30.2289 80.9142 28.6892 80.9142 26.9038V24.1583C80.9142 22.3729 78.8047 20.9536 76.3663 20.9536Z" fill="#2A2C41"/>
</svg>
