<svg width="82" height="51" viewBox="0 0 82 51" fill="none" xmlns="http://www.w3.org/2000/svg">
<path d="M76.4602 20.8456L76.5865 20.8659H22.4478L39.467 8.3695C40.3004 7.7594 40.7576 6.93293 40.7576 6.06549C40.7576 5.19806 40.3004 4.37736 39.467 3.76582L36.8188 1.82469C35.9861 1.21459 34.8764 0.877258 33.6931 0.877258C32.5091 0.877258 31.3988 1.21219 30.5661 1.82228L1.39184 23.1945C0.55581 23.807 0.0986575 24.6228 0.101946 25.4908C0.0986575 26.3635 0.55581 27.1799 1.39184 27.7914L30.5661 49.1655C31.3988 49.7751 32.5085 50.1105 33.6931 50.1105C34.8764 50.1105 35.9861 49.7746 36.8188 49.1655L39.467 47.2244C40.3004 46.6153 40.7576 45.8018 40.7576 44.9344C40.7576 44.0674 40.3004 43.2968 39.467 42.6872L22.2557 30.121H76.5207C78.9591 30.121 81.0081 28.5812 81.0081 26.7958V24.0503C81.0081 22.2649 78.8986 20.8456 76.4602 20.8456Z" fill="#E55E3A"/>
</svg>
