<svg width="26" height="26" viewBox="0 0 26 26" fill="none" xmlns="http://www.w3.org/2000/svg">
<path fill-rule="evenodd" clip-rule="evenodd" d="M8.052 7.40785L6.10279 0.741188H1.04419C0.612158 0.741188 0.262939 1.11452 0.262939 1.57452C0.262939 2.03535 0.612158 2.40785 1.04419 2.40785H4.95044L6.52152 7.40785H6.51294L8.07544 17.4079C8.07544 19.2487 9.47466 20.7412 11.2004 20.7412H19.7942C21.52 20.7412 22.9192 19.2487 22.9192 17.4079L25.2629 7.40785H8.052ZM19.0129 22.4079C18.1504 22.4079 17.4504 23.1545 17.4504 24.0745C17.4504 24.9945 18.1504 25.7412 19.0129 25.7412C19.8754 25.7412 20.5754 24.9945 20.5754 24.0745C20.5754 23.1545 19.8754 22.4079 19.0129 22.4079ZM11.2004 22.4079C10.3379 22.4079 9.63794 23.1545 9.63794 24.0745C9.63794 24.9945 10.3379 25.7412 11.2004 25.7412C12.0629 25.7412 12.7629 24.9945 12.7629 24.0745C12.7629 23.1545 12.0629 22.4079 11.2004 22.4079Z" fill="#DDDDE6"/>
</svg>
