<svg width="26" height="26" viewBox="0 0 26 26" fill="none" xmlns="http://www.w3.org/2000/svg">
<path fill-rule="evenodd" clip-rule="evenodd" d="M8.27124 6.99237L6.32203 0.325701H1.26343C0.831397 0.325701 0.482178 0.699034 0.482178 1.15903C0.482178 1.61987 0.831397 1.99237 1.26343 1.99237H5.16968L6.74076 6.99237H6.73218L8.29468 16.9924C8.29468 18.8332 9.6939 20.3257 11.4197 20.3257H20.0134C21.7392 20.3257 23.1384 18.8332 23.1384 16.9924L25.4822 6.99237H8.27124ZM19.2322 21.9924C18.3697 21.9924 17.6697 22.739 17.6697 23.659C17.6697 24.579 18.3697 25.3257 19.2322 25.3257C20.0947 25.3257 20.7947 24.579 20.7947 23.659C20.7947 22.739 20.0947 21.9924 19.2322 21.9924ZM11.4197 21.9924C10.5572 21.9924 9.85718 22.739 9.85718 23.659C9.85718 24.579 10.5572 25.3257 11.4197 25.3257C12.2822 25.3257 12.9822 24.579 12.9822 23.659C12.9822 22.739 12.2822 21.9924 11.4197 21.9924Z" fill="#E55E3A"/>
</svg>
