<svg width="38" height="36" viewBox="0 0 38 36" fill="none" xmlns="http://www.w3.org/2000/svg">
<path fill-rule="evenodd" clip-rule="evenodd" d="M19.1065 35.909C23.7455 35.8652 28.3378 33.9642 31.6403 30.7364C35.5629 26.9018 37.5825 21.2295 36.8782 15.8141C35.6705 6.53292 27.9578 0.235352 18.9907 0.235352C12.1786 0.235352 5.55696 4.45081 2.65245 10.5635C0.428928 15.243 0.425166 20.8931 2.65245 25.5816C5.53589 31.6512 12.0492 35.8444 18.8748 35.909C18.9523 35.9097 19.029 35.9097 19.1065 35.909ZM18.8943 32.9365C11.9657 32.8705 5.50128 27.5701 4.21532 20.775C3.30935 15.9841 5.02045 10.8004 8.58336 7.398C12.7445 3.42535 19.2834 2.09396 24.7199 4.34611C29.5853 6.36139 33.2257 11.0395 33.8969 16.1935C34.4718 20.6109 32.8691 25.2407 29.72 28.4307C26.957 31.2279 23.0833 32.8979 19.087 32.9365C19.023 32.9365 18.9583 32.9365 18.8943 32.9365ZM9.57736 25.2957L16.9018 18.0677L9.56984 10.8323L11.6797 8.75092L19.0117 15.9863L26.595 8.50291L28.708 10.5873L21.1246 18.0714L28.723 25.5697L26.6139 27.6518L19.0147 20.1528L11.6903 27.3808L9.57736 25.2957Z" fill="#2A2C41"/>
</svg>
