<svg width="37" height="37" viewBox="0 0 37 37" fill="none" xmlns="http://www.w3.org/2000/svg">
<path fill-rule="evenodd" clip-rule="evenodd" d="M18.9367 36.2993C23.5757 36.2554 28.168 34.3545 31.4705 31.1266C35.3931 27.2921 37.4127 21.6198 36.7084 16.2044C35.5007 6.92321 27.788 0.625641 18.8209 0.625641C12.0088 0.625641 5.38716 4.8411 2.48265 10.9538C0.259128 15.6333 0.255366 21.2834 2.48265 25.9719C5.36609 32.0415 11.8794 36.2347 18.705 36.2993C18.7825 36.3 18.8592 36.3 18.9367 36.2993ZM18.7245 33.3268C11.7959 33.2607 5.33148 27.9604 4.04552 21.1653C3.13955 16.3744 4.85065 11.1907 8.41356 7.78828C12.5747 3.81564 19.1136 2.48425 24.5501 4.7364C29.4155 6.75168 33.0559 11.4298 33.7271 16.5838C34.302 21.0012 32.6993 25.631 29.5502 28.821C26.7872 31.6182 22.9135 33.2882 18.9172 33.3268C18.8532 33.3268 18.7885 33.3268 18.7245 33.3268ZM9.40756 25.686L16.732 18.458L9.40004 11.2226L11.5099 9.14121L18.8419 16.3766L26.4252 8.8932L28.5382 10.9775L20.9548 18.4617L28.5532 25.96L26.4441 28.0421L18.8449 20.5431L11.5205 27.7711L9.40756 25.686Z" fill="#C5392F"/>
</svg>
