<svg width="37" height="38" viewBox="0 0 37 38" fill="none" xmlns="http://www.w3.org/2000/svg">
<path d="M18.5 27.4051C19.1386 27.4051 19.6562 26.8874 19.6562 26.2489V16.9989C19.6562 16.3603 19.1386 15.8426 18.5 15.8426C17.8614 15.8426 17.3438 16.3603 17.3438 16.9989V26.2489C17.3438 26.8874 17.8614 27.4051 18.5 27.4051Z" fill="#E55E3A"/>
<path d="M18.5 10.8322C19.3515 10.8322 20.0417 11.5224 20.0417 12.3739C20.0417 13.2253 19.3515 13.9155 18.5 13.9155C17.6486 13.9155 16.9584 13.2253 16.9584 12.3739C16.9584 11.5224 17.6486 10.8322 18.5 10.8322Z" fill="#E55E3A"/>
<path fill-rule="evenodd" clip-rule="evenodd" d="M1.92712 18.5405C1.92712 9.38755 9.34707 1.9676 18.5 1.9676C27.6531 1.9676 35.073 9.38755 35.073 18.5405C35.073 27.6935 27.6531 35.1134 18.5 35.1134C9.34707 35.1134 1.92712 27.6935 1.92712 18.5405ZM18.5 4.2801C10.6242 4.2801 4.23962 10.6647 4.23962 18.5405C4.23962 26.4163 10.6242 32.8009 18.5 32.8009C26.3758 32.8009 32.7605 26.4163 32.7605 18.5405C32.7605 10.6647 26.3758 4.2801 18.5 4.2801Z" fill="#E55E3A"/>
</svg>
