<svg width="100" height="106" viewBox="0 0 100 106" fill="none" xmlns="http://www.w3.org/2000/svg">
<rect x="0.0098877" y="0.325701" width="99.4401" height="105.137" rx="49.72" fill="#2A2C41"/>
<path d="M19.0634 44.8089C19.0632 46.932 19.4597 49.0344 20.2302 50.996C21.0007 52.9575 22.1301 54.7399 23.554 56.2412C24.9778 57.7426 26.6682 58.9335 28.5286 59.746C30.389 60.5586 32.383 60.9768 34.3967 60.9768C36.4104 60.9768 38.4044 60.5586 40.2648 59.746C42.1252 58.9335 43.8156 57.7426 45.2394 56.2412C46.6633 54.7399 47.7927 52.9575 48.5632 50.996C49.3337 49.0344 49.7302 46.932 49.73 44.8089C49.7302 42.6857 49.3337 40.5833 48.5632 38.6218C47.7927 36.6602 46.6633 34.8778 45.2394 33.3765C43.8156 31.8752 42.1252 30.6842 40.2648 29.8717C38.4044 29.0592 36.4104 28.641 34.3967 28.641C32.383 28.641 30.389 29.0592 28.5286 29.8717C26.6682 30.6842 24.9778 31.8752 23.554 33.3765C22.1301 34.8778 21.0007 36.6602 20.2302 38.6218C19.4597 40.5833 19.0632 42.6857 19.0634 44.8089Z" fill="#FFB300"/>
<path d="M20.98 73.1005C20.9798 75.2237 21.3763 77.326 22.1468 79.2876C22.9173 81.2492 24.0467 83.0315 25.4706 84.5329C26.8944 86.0342 28.5848 87.2252 30.4452 88.0377C32.3056 88.8502 34.2996 89.2684 36.3133 89.2684C38.327 89.2684 40.321 88.8502 42.1814 88.0377C44.0418 87.2252 45.7322 86.0342 47.156 84.5329C48.5799 83.0315 49.7093 81.2492 50.4798 79.2876C51.2503 77.326 51.6468 75.2237 51.6466 73.1005C51.6468 70.9774 51.2503 68.875 50.4798 66.9134C49.7093 64.9519 48.5799 63.1695 47.156 61.6682C45.7322 60.1668 44.0418 58.9759 42.1814 58.1634C40.321 57.3508 38.327 56.9326 36.3133 56.9326C34.2996 56.9326 32.3056 57.3508 30.4452 58.1634C28.5848 58.9759 26.8944 60.1668 25.4706 61.6682C24.0467 63.1695 22.9173 64.9519 22.1468 66.9134C21.3763 68.875 20.9798 70.9774 20.98 73.1005Z" fill="#FFB300"/>
<path d="M76.5633 56.6772C76.5633 44.2147 69.3241 47.0924 69.3241 20.2517H51.2212C51.2212 47.0924 43.98 44.2147 43.98 56.6772V86.3956C43.979 87.1563 44.2645 87.8863 44.7738 88.4252C45.283 88.964 45.9744 89.2676 46.6959 89.2692H73.8493C74.5705 89.2671 75.2614 88.9632 75.7702 88.4244C76.2791 87.8857 76.5643 87.1559 76.5633 86.3956V56.6772Z" fill="#90CAF9"/>
<path d="M70.8133 19.5525C70.8133 21.2257 69.6326 22.5817 68.1779 22.5817H52.3654C50.9106 22.5817 49.73 21.2257 49.73 19.5525V17.5316C49.73 15.8584 50.9106 14.4984 52.3654 14.4984H68.1779C69.6326 14.4984 70.8133 15.8584 70.8133 17.5316V19.5525Z" fill="#9C27B0"/>
<path d="M72.9427 82.56C72.9432 82.6859 72.9201 82.8106 72.8748 82.9271C72.8295 83.0435 72.7628 83.1494 72.6785 83.2386C72.5943 83.3277 72.4942 83.3985 72.384 83.4468C72.2737 83.4951 72.1555 83.5199 72.0361 83.5199H48.5052C48.3859 83.5197 48.2678 83.4946 48.1577 83.4463C48.0476 83.3979 47.9476 83.3271 47.8634 83.238C47.7792 83.1488 47.7125 83.0431 47.6671 82.9268C47.6216 82.8104 47.5984 82.6858 47.5986 82.56V56.6772C47.5986 52.5305 48.4841 50.647 49.8239 47.7936C51.0333 45.2231 52.3941 42.297 53.3985 37.5035H67.1448C68.1472 42.297 69.51 45.2211 70.7194 47.7936C72.0572 50.645 72.9427 52.5305 72.9427 56.6772V82.56Z" fill="#FAFAFA"/>
<path d="M19.0634 56.9379L22.8967 89.2692H76.5634L80.3967 56.9379H19.0634ZM32.48 83.2067H28.6467V75.1234H32.48V83.2067ZM32.48 71.0817H28.6467V62.9984H32.48V71.0817ZM42.0634 83.2067H38.23V75.1234H42.0634V83.2067ZM42.0634 71.0817H38.23V62.9984H42.0634V71.0817ZM51.6467 83.2067H47.8134V75.1234H51.6467V83.2067ZM51.6467 71.0817H47.8134V62.9984H51.6467V71.0817ZM61.23 83.2067H57.3967V75.1234H61.23V83.2067ZM61.23 71.0817H57.3967V62.9984H61.23V71.0817ZM70.8134 83.2067H66.98V75.1234H70.8134V83.2067ZM70.8134 71.0817H66.98V62.9984H70.8134V71.0817Z" fill="#E91E63"/>
<path d="M83.2602 52.8942C83.2602 52.3583 83.0582 51.8442 82.6988 51.4653C82.3393 51.0863 81.8518 50.8734 81.3435 50.8734H18.1165C17.6082 50.8734 17.1207 51.0863 16.7612 51.4653C16.4018 51.8442 16.1998 52.3583 16.1998 52.8942V56.9379C16.1998 57.4739 16.4018 57.9879 16.7612 58.3668C17.1207 58.7458 17.6082 58.9587 18.1165 58.9587H81.3435C81.8518 58.9587 82.3393 58.7458 82.6988 58.3668C83.0582 57.9879 83.2602 57.4739 83.2602 56.9379V52.8942Z" fill="#AD1457"/>
<path d="M34.3966 35.7778C34.3966 35.7778 32.4799 22.5837 17.1466 24.6046C20.9799 38.7504 34.3966 35.7778 34.3966 35.7778Z" fill="#4CAF50"/>
</svg>
