<svg width="28" height="25" viewBox="0 0 28 25" fill="none" xmlns="http://www.w3.org/2000/svg">
<path d="M14.1171 24.0405L13.4421 23.5C10.4046 21.3378 0.617065 13.554 0.617065 6.85133C0.617065 3.06755 3.87957 0.0405197 7.92957 0.0405197C10.4046 0.0405197 12.7671 1.22971 14.1171 3.17565C15.4671 1.22971 17.8296 0.0405197 20.3046 0.0405197C24.3546 0.0405197 27.6171 3.06755 27.6171 6.85133C27.6171 13.6621 17.8296 21.3378 14.7921 23.6081L14.1171 24.0405ZM7.92957 2.09457C5.11707 2.09457 2.86707 4.14863 2.86707 6.74322C2.86707 11.1757 8.60457 17.0135 14.1171 21.2297C19.6296 17.0135 25.3671 11.1757 25.3671 6.74322C25.3671 4.14863 23.1171 2.09457 20.3046 2.09457C18.5046 2.09457 16.9296 2.95944 16.0296 4.25674L14.1171 7.17565L12.2046 4.36484C11.3046 2.95944 9.72957 2.09457 7.92957 2.09457Z" fill="#E55E3A"/>
</svg>
