<svg xmlns="http://www.w3.org/2000/svg" version="1.1" xmlns:xlink="http://www.w3.org/1999/xlink" xmlns:svgjs="http://svgjs.dev/svgjs" width="1000" height="1000" viewBox="0 0 1000 1000"><rect width="1000" height="1000" fill="#ffffff"></rect><g transform="matrix(0.7,0,0,0.7,150.0203181877335,120.25)"><svg viewBox="0 0 258 280" data-background-color="#f4f4f8" preserveAspectRatio="xMidYMid meet" height="1085" width="1000" xmlns="http://www.w3.org/2000/svg" xmlns:xlink="http://www.w3.org/1999/xlink"><g id="tight-bounds" transform="matrix(1,0,0,1,-0.007488703478912839,0)"><svg viewBox="0 0 258.0149774069578 280" height="280" width="258.0149774069578"><g><svg viewBox="0 0 278.2696 301.9804849433477" height="280" width="258.0149774069578"><g><svg viewBox="0 0 278.2696 301.9804849433477" height="301.9804849433477" width="278.2696"><g id="textblocktransform"><svg viewBox="0 0 278.2696 301.9804849433477" height="301.9804849433477" width="278.2696" id="textblock"><g><svg viewBox="0 0 278.2696 278.2696" height="278.2696" width="278.2696"><g transform="matrix(1,0,0,1,89.94321971048298,91.47198473678867)"><svg viewBox="0 0 98.38316057903407 95.32563052642267" height="95.32563052642267" width="98.38316057903407"><g><svg xmlns="http://www.w3.org/2000/svg" xmlns:xlink="http://www.w3.org/1999/xlink" version="1.1" x="0" y="0" viewBox="0.5 1.025566683793627 33 31.974433316206373" enable-background="new 0 0 34 34" xml:space="preserve" height="95.32563052642267" width="98.38316057903407" class="icon-kg-0" data-fill-palette-color="accent" id="kg-0"></svg></g></svg></g><g><path d="M17.019 80.707l2.637 0.984c0.945 0.353 1.746 0.784 2.402 1.295 0.65 0.508 1.185 1.067 1.604 1.676 0.417 0.615 0.73 1.256 0.941 1.923 0.21 0.667 0.339 1.333 0.385 1.996 0.047 0.663 0.022 1.307-0.075 1.931-0.103 0.622-0.248 1.185-0.436 1.69v0l10.677-5.847-2.384 6.389-10.674 5.837-1.107 2.968-4.131-1.541 3.489-9.348c0.149-0.533 0.218-1.046 0.207-1.537-0.017-0.494-0.114-0.954-0.292-1.38-0.179-0.426-0.448-0.799-0.81-1.12-0.352-0.325-0.8-0.589-1.341-0.792v0l-2.609-0.973c-0.233-0.087-0.42-0.124-0.561-0.113-0.141 0.012-0.259 0.05-0.355 0.115-0.092 0.073-0.16 0.159-0.204 0.258-0.05 0.096-0.091 0.185-0.121 0.267v0l-5.09 13.639 18.658 6.962-1.541 4.13-20.709-7.727c-0.284-0.106-0.534-0.26-0.753-0.464-0.212-0.201-0.379-0.428-0.499-0.682-0.127-0.256-0.196-0.533-0.207-0.831-0.007-0.29 0.045-0.583 0.156-0.878v0l5.855-15.69c0.343-0.92 0.801-1.636 1.372-2.148 0.571-0.512 1.18-0.873 1.826-1.084 0.652-0.209 1.304-0.292 1.956-0.25 0.646 0.04 1.223 0.155 1.734 0.345z" fill="#000000" data-fill-palette-color="primary"></path><path d="M37.172 58.055l3.677 2.505-7.838 11.506-3.677-2.505zM46.537 62.03l3.643 2.482-8.956 13.148c-0.345 0.506-0.81 0.998-1.397 1.477-0.583 0.474-1.252 0.828-2.006 1.063-0.75 0.229-1.568 0.295-2.453 0.197-0.881-0.104-1.794-0.478-2.74-1.122v0l-13.148-8.956c-0.25-0.17-0.457-0.38-0.62-0.631-0.162-0.24-0.269-0.501-0.323-0.781-0.063-0.279-0.063-0.564-0.002-0.856 0.063-0.283 0.183-0.555 0.36-0.816v0l11.183-16.417 3.644 2.482-9.951 14.608 11.339 7.724c0.478 0.326 0.927 0.449 1.348 0.369 0.43-0.082 0.809-0.364 1.139-0.848v0z" fill="#000000" data-fill-palette-color="primary"></path><path d="M67.216 42.958l2.971 3.257-11.753 10.722c-0.303 0.276-0.66 0.539-1.072 0.786-0.411 0.238-0.853 0.437-1.327 0.597-0.479 0.164-0.981 0.267-1.507 0.309-0.526 0.043-1.062 0.004-1.608-0.117-0.547-0.12-1.094-0.341-1.641-0.661-0.552-0.316-1.084-0.754-1.596-1.315v0l-8.05-8.825c-0.272-0.298-0.532-0.653-0.779-1.064-0.243-0.416-0.444-0.861-0.603-1.334-0.159-0.474-0.258-0.976-0.295-1.506-0.038-0.53 0.004-1.069 0.124-1.615 0.12-0.547 0.336-1.094 0.646-1.642 0.315-0.543 0.754-1.07 1.315-1.582v0l11.754-10.722 2.971 3.257-11.753 10.722c-0.427 0.39-0.651 0.798-0.671 1.226-0.02 0.437 0.172 0.877 0.575 1.319v0l8.023 8.794c0.381 0.417 0.792 0.639 1.233 0.664 0.442 0.016 0.872-0.167 1.29-0.548v0z" fill="#000000" data-fill-palette-color="primary"></path><path d="M65.775 20.246l13.278 20.378-3.694 2.407-13.278-20.379z" fill="#000000" data-fill-palette-color="primary"></path><path d="M101.293 13.275l0.776 1.852c0.387 0.924 0.619 1.801 0.695 2.628 0.077 0.828 0.037 1.603-0.12 2.326-0.157 0.722-0.411 1.386-0.763 1.992-0.343 0.61-0.74 1.159-1.191 1.647-0.454 0.482-0.942 0.901-1.464 1.258-0.518 0.348-1.028 0.627-1.531 0.838v0l-9.203 3.852-1.702-4.067 9.203-3.852c0.503-0.262 0.929-0.567 1.278-0.918 0.352-0.344 0.619-0.726 0.801-1.144 0.182-0.419 0.27-0.871 0.263-1.357-0.004-0.48-0.115-0.98-0.333-1.501v0l-0.775-1.852c-0.269-0.485-0.576-0.907-0.923-1.265-0.347-0.358-0.726-0.629-1.139-0.814-0.413-0.185-0.859-0.275-1.339-0.271-0.476-0.005-0.981 0.104-1.514 0.328v0l-9.166 3.837c-0.546 0.229-0.9 0.541-1.063 0.936-0.166 0.405-0.139 0.871 0.083 1.399v0l7.003 16.732-4.067 1.702-7.003-16.732c-0.436-1.042-0.614-2.007-0.533-2.894 0.072-0.89 0.3-1.678 0.684-2.364 0.375-0.689 0.855-1.276 1.439-1.762 0.581-0.476 1.153-0.833 1.717-1.069v0l9.204-3.852c0.918-0.384 1.791-0.615 2.619-0.692 0.825-0.068 1.598-0.024 2.32 0.134 0.722 0.157 1.386 0.411 1.993 0.763 0.604 0.345 1.153 0.742 1.647 1.191 0.488 0.452 0.907 0.94 1.258 1.464 0.354 0.515 0.636 1.024 0.846 1.527z" fill="#000000" data-fill-palette-color="primary"></path><path d="M129.911 10.125l0.695 4.395-13.751 2.172-0.695-4.394zM133.432 19.67l0.688 4.355-15.714 2.483c-0.605 0.096-1.282 0.094-2.034-0.006-0.744-0.1-1.46-0.345-2.148-0.733-0.681-0.389-1.289-0.94-1.824-1.652-0.528-0.713-0.881-1.634-1.059-2.764v0l-2.483-15.714c-0.047-0.299-0.036-0.594 0.034-0.884 0.064-0.283 0.18-0.539 0.348-0.77 0.16-0.236 0.367-0.433 0.622-0.588 0.249-0.148 0.529-0.247 0.841-0.297v0l19.621-3.1 0.688 4.355-17.458 2.758 2.141 13.552c0.09 0.571 0.308 0.983 0.655 1.234 0.354 0.257 0.82 0.34 1.397 0.249v0z" fill="#000000" data-fill-palette-color="primary"></path><path d="M180.675 11.676l-0.577 2.755c-0.207 0.987-0.513 1.844-0.919 2.57-0.405 0.719-0.876 1.332-1.415 1.838-0.545 0.504-1.132 0.911-1.76 1.219-0.628 0.308-1.266 0.535-1.915 0.681-0.649 0.146-1.289 0.218-1.921 0.216-0.63-0.008-1.209-0.067-1.736-0.177v0l7.385 9.677-6.675-1.397-7.375-9.675-3.1-0.649 0.903-4.315 9.765 2.044c0.549 0.067 1.067 0.058 1.552-0.026 0.486-0.091 0.926-0.256 1.32-0.497 0.394-0.241 0.723-0.563 0.986-0.969 0.269-0.397 0.462-0.879 0.58-1.445v0l0.571-2.725c0.051-0.244 0.06-0.434 0.027-0.572-0.033-0.137-0.089-0.249-0.168-0.333-0.086-0.08-0.181-0.134-0.285-0.163-0.103-0.035-0.197-0.062-0.282-0.08v0l-14.249-2.982-4.079 19.492-4.315-0.903 4.528-21.634c0.062-0.296 0.177-0.568 0.345-0.815 0.167-0.24 0.367-0.439 0.599-0.596 0.234-0.164 0.497-0.274 0.79-0.329 0.285-0.05 0.583-0.043 0.892 0.022v0l16.392 3.43c0.961 0.201 1.738 0.546 2.329 1.034 0.592 0.488 1.041 1.035 1.347 1.642 0.305 0.613 0.485 1.246 0.541 1.896 0.058 0.644 0.031 1.233-0.081 1.766z" fill="#000000" data-fill-palette-color="primary"></path><path d="M211.005 30.976l-2.082 4.158c-0.663 1.323-1.501 2.426-2.515 3.31-1.014 0.884-2.126 1.527-3.336 1.929-1.218 0.405-2.494 0.556-3.826 0.453-1.332-0.103-2.651-0.481-3.956-1.135v0l-5.34-2.674c-1.305-0.654-2.401-1.484-3.287-2.493-0.887-1.008-1.53-2.12-1.929-3.335-0.408-1.212-0.562-2.489-0.462-3.831 0.094-1.344 0.472-2.678 1.135-4.001v0l2.083-4.158c0.66-1.317 1.499-2.416 2.519-3.296 1.017-0.89 2.133-1.534 3.349-1.934 1.209-0.402 2.483-0.55 3.822-0.444 1.341 0.1 2.665 0.477 3.969 1.131v0l5.34 2.674c1.305 0.654 2.396 1.486 3.274 2.497 0.881 1.005 1.525 2.114 1.933 3.326 0.402 1.209 0.552 2.488 0.449 3.836-0.1 1.341-0.48 2.671-1.14 3.987zM204.972 33.156l2.082-4.159c0.392-0.782 0.622-1.55 0.692-2.305 0.07-0.755-0.008-1.471-0.233-2.147-0.228-0.671-0.595-1.291-1.1-1.86-0.508-0.563-1.141-1.034-1.898-1.413v0l-5.34-2.674c-0.77-0.385-1.532-0.613-2.287-0.683-0.758-0.064-1.474 0.014-2.148 0.233-0.683 0.222-1.306 0.587-1.868 1.095-0.569 0.505-1.049 1.148-1.441 1.93v0l-2.082 4.158c-0.389 0.776-0.615 1.543-0.678 2.301-0.07 0.755 0.011 1.472 0.242 2.152 0.225 0.677 0.592 1.297 1.099 1.86 0.508 0.563 1.147 1.037 1.917 1.422v0l5.313 2.661c0.77 0.385 1.532 0.613 2.287 0.683 0.755 0.07 1.471-0.008 2.147-0.234 0.683-0.222 1.306-0.587 1.869-1.095 0.563-0.508 1.038-1.15 1.427-1.925z" fill="#000000" data-fill-palette-color="primary"></path><path d="M242.569 44.798l-14.566 16.625c-0.208 0.238-0.444 0.42-0.707 0.548-0.268 0.132-0.542 0.205-0.822 0.218-0.285 0.009-0.567-0.032-0.845-0.123-0.278-0.091-0.533-0.239-0.765-0.442v0l-7.475-6.548c-0.708-0.62-1.358-1.323-1.948-2.109-0.586-0.791-1.076-1.64-1.469-2.549-0.399-0.913-0.681-1.876-0.848-2.889-0.158-1.014-0.167-2.055-0.028-3.122 0.149-1.068 0.478-2.148 0.987-3.24 0.509-1.101 1.233-2.188 2.173-3.26v0l8.01-9.143 3.316 2.905-8.01 9.143c-0.82 0.936-1.382 1.843-1.687 2.721-0.309 0.874-0.455 1.703-0.436 2.488 0.023 0.78 0.164 1.502 0.422 2.167 0.258 0.664 0.552 1.243 0.88 1.736 0.324 0.498 0.637 0.906 0.938 1.225 0.302 0.318 0.504 0.522 0.606 0.611v0l5.827 5.105 13.123-14.978z" fill="#000000" data-fill-palette-color="primary"></path><path d="M262.612 72.562l-3.645 2.479-5.464-8.033-16.466 11.199-2.485-3.653 16.466-11.2-5.475-8.049 3.646-2.48z" fill="#000000" data-fill-palette-color="primary"></path><path d="M265.055 103.699l-4.135 1.643-5.142-12.937 4.135-1.643zM256.517 109.231l-4.097 1.629-5.876-14.784c-0.226-0.569-0.373-1.23-0.441-1.985-0.066-0.748 0.015-1.501 0.242-2.257 0.23-0.75 0.634-1.464 1.212-2.142 0.58-0.672 1.401-1.219 2.463-1.642v0l14.784-5.876c0.281-0.112 0.571-0.165 0.87-0.161 0.29 0.001 0.566 0.057 0.827 0.17 0.266 0.104 0.503 0.263 0.711 0.478 0.199 0.21 0.357 0.462 0.474 0.756v0l7.337 18.459-4.097 1.628-6.528-16.425-12.75 5.068c-0.537 0.214-0.891 0.517-1.06 0.91-0.173 0.402-0.152 0.875 0.064 1.418v0z" fill="#000000" data-fill-palette-color="primary"></path><path d="M35.089 196.485l-2.601 0.966c-0.933 0.347-1.809 0.539-2.626 0.578-0.816 0.045-1.578-0.027-2.286-0.216-0.706-0.182-1.353-0.455-1.94-0.818-0.587-0.363-1.111-0.778-1.572-1.246-0.467-0.465-0.863-0.96-1.187-1.485-0.324-0.525-0.58-1.04-0.767-1.544v0l-4.195 11.244-2.34-6.298 4.198-11.235-1.089-2.931 4.076-1.515 3.426 9.22c0.228 0.497 0.508 0.923 0.841 1.28 0.33 0.365 0.699 0.644 1.108 0.837 0.405 0.201 0.847 0.31 1.326 0.325 0.471 0.012 0.974-0.082 1.51-0.281v0l2.572-0.956c0.227-0.084 0.39-0.177 0.488-0.278 0.099-0.101 0.16-0.207 0.184-0.316 0.024-0.109 0.023-0.217-0.001-0.322-0.025-0.106-0.053-0.199-0.083-0.281v0l-4.997-13.447-18.412 6.841-1.518-4.085 20.436-7.594c0.277-0.103 0.562-0.148 0.854-0.134 0.292 0.013 0.567 0.076 0.824 0.189 0.257 0.113 0.482 0.273 0.674 0.481 0.201 0.212 0.356 0.467 0.466 0.763v0l5.748 15.471c0.337 0.908 0.459 1.738 0.366 2.49-0.102 0.748-0.325 1.412-0.669 1.993-0.353 0.576-0.784 1.056-1.295 1.439-0.514 0.392-1.021 0.681-1.519 0.865z" fill="#000000" data-fill-palette-color="primary"></path><path d="M45.523 220.174l-3.622 2.46-7.714-11.358 3.622-2.46zM38.485 227.32l-3.597 2.442-8.813-12.977c-0.34-0.501-0.621-1.106-0.844-1.817-0.228-0.707-0.312-1.447-0.251-2.22 0.057-0.778 0.294-1.554 0.713-2.325 0.409-0.774 1.079-1.476 2.008-2.108v0l12.985-8.819c0.245-0.166 0.511-0.278 0.798-0.334 0.287-0.057 0.568-0.061 0.845-0.013 0.276 0.048 0.533 0.15 0.769 0.307 0.246 0.158 0.457 0.368 0.635 0.63v0l11.001 16.198-3.597 2.443-9.788-14.413-11.2 7.607c-0.467 0.317-0.743 0.684-0.827 1.098-0.08 0.42 0.042 0.87 0.367 1.348v0z" fill="#000000" data-fill-palette-color="primary"></path><path d="M60.553 248.123l-2.935 3.208-11.574-10.588c-0.298-0.272-0.584-0.598-0.858-0.976-0.279-0.383-0.516-0.801-0.713-1.254-0.201-0.458-0.347-0.941-0.436-1.451-0.089-0.51-0.096-1.041-0.02-1.592 0.066-0.55 0.229-1.107 0.489-1.671 0.265-0.569 0.65-1.129 1.154-1.679v0l7.953-8.695c0.268-0.293 0.593-0.579 0.976-0.857 0.383-0.279 0.801-0.516 1.253-0.713 0.453-0.196 0.939-0.339 1.459-0.429 0.515-0.085 1.046-0.092 1.591-0.021 0.546 0.071 1.103 0.234 1.672 0.49 0.564 0.261 1.121 0.643 1.672 1.147v0l11.574 10.588-2.934 3.208-11.575-10.588c-0.417-0.381-0.839-0.562-1.267-0.544-0.428 0.019-0.841 0.247-1.24 0.684v0l-7.926 8.664c-0.377 0.412-0.553 0.834-0.529 1.266 0.015 0.433 0.228 0.837 0.639 1.214v0z" fill="#000000" data-fill-palette-color="primary"></path><path d="M82.13 238.805l-13.101 20.096-3.642-2.374 13.101-20.097z" fill="#000000" data-fill-palette-color="primary"></path><path d="M106.514 258.204l-0.762 1.824c-0.384 0.918-0.841 1.689-1.372 2.314-0.524 0.626-1.094 1.135-1.71 1.526-0.613 0.385-1.256 0.667-1.927 0.846-0.666 0.181-1.327 0.28-1.983 0.297-0.65 0.02-1.28-0.032-1.892-0.157-0.605-0.122-1.156-0.286-1.653-0.493v0l-9.075-3.793 1.677-4.012 9.075 3.793c0.531 0.178 1.04 0.267 1.529 0.267 0.492 0.009 0.948-0.07 1.367-0.237 0.417-0.161 0.792-0.412 1.125-0.755 0.336-0.333 0.612-0.757 0.827-1.273v0l0.762-1.824c0.16-0.523 0.245-1.031 0.254-1.523 0.009-0.492-0.064-0.945-0.219-1.36-0.161-0.417-0.405-0.792-0.732-1.126-0.331-0.342-0.76-0.624-1.287-0.844v0l-9.038-3.778c-0.54-0.226-1.005-0.256-1.394-0.09-0.396 0.163-0.703 0.504-0.921 1.025v0l-6.898 16.503-4.011-1.677 6.897-16.502c0.428-1.024 0.979-1.818 1.652-2.383 0.682-0.568 1.394-0.955 2.137-1.162 0.749-0.205 1.494-0.269 2.234-0.192 0.743 0.07 1.391 0.221 1.944 0.451v0l9.075 3.793c0.906 0.379 1.671 0.833 2.295 1.364 0.621 0.537 1.128 1.113 1.519 1.728 0.391 0.616 0.675 1.255 0.849 1.919 0.172 0.67 0.271 1.331 0.297 1.983 0.017 0.656-0.032 1.288-0.147 1.895-0.124 0.611-0.289 1.162-0.494 1.653z" fill="#000000" data-fill-palette-color="primary"></path><path d="M131.431 263.954l-0.681 4.325-13.563-2.136 0.681-4.325zM131.835 273.975l-0.677 4.295-15.496-2.44c-0.598-0.094-1.232-0.303-1.903-0.627-0.672-0.317-1.269-0.761-1.791-1.334-0.529-0.574-0.933-1.277-1.21-2.11-0.285-0.828-0.34-1.796-0.166-2.906v0l2.442-15.506c0.046-0.292 0.146-0.562 0.301-0.811 0.155-0.248 0.344-0.456 0.568-0.625 0.224-0.169 0.474-0.286 0.75-0.352 0.284-0.071 0.581-0.082 0.894-0.033v0l19.343 3.046-0.677 4.295-17.21-2.71-2.106 13.374c-0.088 0.558-0.009 1.01 0.236 1.354 0.252 0.346 0.664 0.564 1.235 0.654v0z" fill="#000000" data-fill-palette-color="primary"></path><path d="M176.733 253.575l0.574 2.714c0.206 0.974 0.268 1.868 0.186 2.683-0.075 0.813-0.259 1.557-0.549 2.23-0.284 0.672-0.649 1.271-1.094 1.799-0.445 0.527-0.933 0.984-1.463 1.371-0.529 0.394-1.076 0.712-1.644 0.956-0.567 0.244-1.114 0.421-1.64 0.533v0l10.507 5.8-6.574 1.39-10.497-5.802-3.059 0.647-0.9-4.254 9.623-2.035c0.525-0.152 0.988-0.367 1.39-0.645 0.41-0.272 0.74-0.596 0.99-0.972 0.258-0.371 0.431-0.792 0.517-1.264 0.081-0.464 0.062-0.975-0.057-1.535v0l-0.567-2.684c-0.05-0.237-0.118-0.412-0.204-0.525-0.086-0.112-0.181-0.189-0.286-0.228-0.105-0.04-0.211-0.055-0.319-0.046-0.108 0.009-0.205 0.023-0.29 0.041v0l-14.035 2.968 4.064 19.217-4.264 0.901-4.51-21.328c-0.061-0.29-0.064-0.578-0.008-0.865 0.056-0.287 0.159-0.549 0.308-0.787 0.149-0.238 0.341-0.436 0.575-0.596 0.24-0.168 0.514-0.284 0.823-0.349v0l16.147-3.415c0.948-0.2 1.786-0.199 2.517 0.004 0.725 0.211 1.349 0.529 1.873 0.955 0.518 0.434 0.929 0.931 1.233 1.492 0.312 0.566 0.523 1.109 0.633 1.629z" fill="#000000" data-fill-palette-color="primary"></path><path d="M206.283 243.888l2.058 4.092c0.656 1.304 1.035 2.619 1.138 3.945 0.106 1.317-0.04 2.576-0.437 3.777-0.397 1.201-1.029 2.294-1.896 3.28-0.87 0.995-1.948 1.815-3.233 2.462v0l-5.254 2.644c-1.286 0.647-2.59 1.025-3.914 1.133-1.314 0.112-2.572-0.031-3.772-0.429-1.195-0.4-2.296-1.032-3.303-1.895-1.004-0.873-1.834-1.961-2.489-3.265v0l-2.059-4.092c-0.653-1.298-1.031-2.61-1.133-3.935-0.097-1.329 0.052-2.59 0.446-3.782 0.4-1.195 1.035-2.29 1.905-3.285 0.873-1.004 1.952-1.829 3.238-2.476v0l5.254-2.643c1.286-0.647 2.589-1.02 3.909-1.119 1.311-0.102 2.566 0.042 3.763 0.432 1.198 0.391 2.296 1.024 3.294 1.901 1.004 0.873 1.832 1.958 2.485 3.255zM204.457 249.934l-2.058-4.091c-0.387-0.769-0.859-1.401-1.417-1.896-0.555-0.504-1.166-0.866-1.834-1.088-0.668-0.221-1.375-0.294-2.121-0.22-0.743 0.065-1.49 0.286-2.241 0.664v0l-5.254 2.644c-0.757 0.381-1.386 0.852-1.887 1.412-0.504 0.555-0.866 1.166-1.087 1.834-0.227 0.671-0.303 1.38-0.229 2.126 0.065 0.743 0.291 1.499 0.677 2.267v0l2.059 4.092c0.387 0.769 0.861 1.404 1.421 1.905 0.552 0.498 1.165 0.856 1.839 1.073 0.668 0.221 1.375 0.294 2.121 0.221 0.749-0.068 1.502-0.292 2.259-0.673v0l5.227-2.63c0.757-0.381 1.386-0.852 1.886-1.412 0.498-0.552 0.86-1.163 1.088-1.835 0.227-0.671 0.305-1.377 0.234-2.116-0.068-0.749-0.295-1.508-0.683-2.277z" fill="#000000" data-fill-palette-color="primary"></path><path d="M222.709 216.891l14.393 16.375c0.204 0.232 0.355 0.485 0.451 0.758 0.092 0.278 0.126 0.556 0.104 0.836-0.023 0.28-0.1 0.549-0.231 0.807-0.122 0.259-0.296 0.488-0.523 0.688v0l-7.365 6.474c-0.692 0.608-1.461 1.15-2.307 1.624-0.845 0.474-1.739 0.848-2.681 1.121-0.942 0.273-1.919 0.424-2.931 0.455-1.012 0.03-2.031-0.095-3.057-0.376-1.026-0.281-2.042-0.739-3.05-1.376-1.007-0.637-1.975-1.483-2.903-2.539v0l-7.918-9.009 3.265-2.87 7.919 9.009c0.808 0.919 1.623 1.587 2.445 2.002 0.817 0.41 1.609 0.654 2.376 0.732 0.766 0.087 1.491 0.046 2.174-0.125 0.683-0.17 1.288-0.384 1.814-0.641 0.526-0.257 0.962-0.51 1.307-0.759 0.35-0.254 0.575-0.425 0.676-0.514v0l5.744-5.048-12.967-14.753z" fill="#000000" data-fill-palette-color="primary"></path><path d="M237.708 194.845l3.599 2.44-5.379 7.933 16.257 11.023-2.44 3.599-16.257-11.024-5.39 7.949-3.598-2.44z" fill="#000000" data-fill-palette-color="primary"></path><path d="M255.438 176.751l4.072 1.61-5.05 12.768-4.071-1.611zM265.305 178.548l4.043 1.599-5.769 14.588c-0.223 0.563-0.565 1.136-1.028 1.72-0.456 0.586-1.021 1.072-1.693 1.456-0.675 0.391-1.45 0.631-2.324 0.72-0.87 0.097-1.827-0.061-2.872-0.474v0l-14.597-5.773c-0.275-0.109-0.517-0.266-0.725-0.472-0.208-0.205-0.37-0.436-0.486-0.691-0.116-0.256-0.176-0.525-0.179-0.808-0.007-0.292 0.047-0.585 0.163-0.88v0l7.202-18.209 4.043 1.6-6.408 16.201 12.59 4.979c0.525 0.208 0.983 0.23 1.373 0.066 0.393-0.17 0.695-0.524 0.909-1.062v0z" fill="#000000" data-fill-palette-color="primary"></path><path d="M3.247 142.16c0-5.204 4.218-9.422 9.422-9.422 5.204 0 9.422 4.218 9.422 9.422 0 5.204-4.218 9.422-9.422 9.422-5.204 0-9.422-4.218-9.422-9.422z" fill="#000000" data-fill-palette-color="primary"></path><path d="M255.903 142.16c0-5.204 4.218-9.422 9.422-9.422 5.204 0 9.422 4.218 9.422 9.422 0 5.204-4.218 9.422-9.422 9.422-5.204 0-9.422-4.218-9.422-9.422z" fill="#000000" data-fill-palette-color="primary"></path></g></svg></g><g transform="matrix(1,0,0,1,53.1494936,293.37938297241465)"><svg viewBox="0 0 171.97061280000003 8.601101970933016" height="8.601101970933016" width="171.97061280000003"><g transform="matrix(1,0,0,1,0,0)"><svg width="171.97061280000003" viewBox="3.22 -37.55 979.61 49" height="8.601101970933016" data-palette-color="#e55e3a"><path d="M35.03-6.35L35.03 0 12.13 0Q11.25 0 10.24-0.21 9.23-0.42 8.24-0.85 7.25-1.29 6.35-1.99 5.44-2.69 4.75-3.67 4.05-4.66 3.64-5.97 3.22-7.28 3.22-8.91L3.22-8.91 3.22-26.1Q3.22-26.98 3.43-27.99 3.64-29 4.08-29.99 4.52-30.98 5.22-31.88 5.93-32.79 6.92-33.48 7.91-34.18 9.2-34.59 10.5-35.01 12.13-35.01L12.13-35.01 35.03-35.01 35.03-28.66 12.13-28.66Q10.89-28.66 10.23-28 9.57-27.34 9.57-26.05L9.57-26.05 9.57-8.91Q9.57-7.69 10.24-7.02 10.91-6.35 12.13-6.35L12.13-6.35 35.03-6.35ZM68.72-17.5L68.72-8.91Q68.72-7.28 68.31-5.97 67.89-4.66 67.21-3.67 66.53-2.69 65.62-1.99 64.72-1.29 63.73-0.85 62.74-0.42 61.73-0.21 60.72 0 59.81 0L59.81 0 48.36 0Q47.04 0 45.48-0.46 43.92-0.93 42.59-1.99 41.26-3.05 40.37-4.75 39.48-6.45 39.48-8.91L39.48-8.91 39.48-17.5Q39.48-19.95 40.37-21.64 41.26-23.34 42.59-24.4 43.92-25.46 45.48-25.93 47.04-26.39 48.36-26.39L48.36-26.39 59.81-26.39Q62.25-26.39 63.96-25.51 65.67-24.63 66.72-23.3 67.77-21.97 68.25-20.41 68.72-18.85 68.72-17.5L68.72-17.5ZM62.38-8.91L62.38-17.46Q62.38-18.77 61.72-19.41 61.06-20.04 59.81-20.04L59.81-20.04 48.41-20.04Q47.14-20.04 46.48-19.4 45.82-18.75 45.82-17.5L45.82-17.5 45.82-8.91Q45.82-7.67 46.48-7.01 47.14-6.35 48.41-6.35L48.41-6.35 59.81-6.35Q61.11-6.35 61.74-7.01 62.38-7.67 62.38-8.91L62.38-8.91ZM102.83-17.5L102.83-8.91Q102.83-7.28 102.41-5.97 102-4.66 101.31-3.67 100.63-2.69 99.73-1.99 98.82-1.29 97.83-0.85 96.85-0.42 95.83-0.21 94.82 0 93.92 0L93.92 0 82.47 0Q81.15 0 79.58-0.46 78.02-0.93 76.69-1.99 75.36-3.05 74.47-4.75 73.58-6.45 73.58-8.91L73.58-8.91 73.58-17.5Q73.58-19.95 74.47-21.64 75.36-23.34 76.69-24.4 78.02-25.46 79.58-25.93 81.15-26.39 82.47-26.39L82.47-26.39 93.92-26.39Q96.36-26.39 98.07-25.51 99.78-24.63 100.83-23.3 101.87-21.97 102.35-20.41 102.83-18.85 102.83-17.5L102.83-17.5ZM96.48-8.91L96.48-17.46Q96.48-18.77 95.82-19.41 95.16-20.04 93.92-20.04L93.92-20.04 82.51-20.04Q81.25-20.04 80.59-19.4 79.93-18.75 79.93-17.5L79.93-17.5 79.93-8.91Q79.93-7.67 80.59-7.01 81.25-6.35 82.51-6.35L82.51-6.35 93.92-6.35Q95.21-6.35 95.84-7.01 96.48-7.67 96.48-8.91L96.48-8.91ZM124.28-14.4L139.23 0 130.07 0 117.28-12.35Q116.2-13.33 116.28-14.79L116.28-14.79Q116.33-15.48 116.63-16.08 116.94-16.67 117.47-17.09L117.47-17.09 129.07-26.44 139.23-26.44 124.28-14.4ZM114.67-37.55L114.67 0 108.32 0 108.32-37.55 114.67-37.55ZM192.69-35.01L192.69-23.29Q192.69-21.12 192.14-19.41 191.59-17.7 190.69-16.39 189.78-15.09 188.57-14.16 187.37-13.23 186.07-12.63 184.78-12.04 183.45-11.77 182.12-11.5 180.94-11.5L180.94-11.5 178.38-11.5 178.38 0 171.98 0 171.98-11.5 169.45-11.5Q168.27-11.5 166.94-11.77 165.61-12.04 164.31-12.63 163-13.23 161.8-14.16 160.61-15.09 159.69-16.39 158.78-17.7 158.23-19.42 157.68-21.14 157.68-23.29L157.68-23.29 157.68-35.01 164.03-35.01 164.03-23.29Q164.03-22.05 164.42-21.06 164.81-20.07 165.51-19.36 166.22-18.65 167.24-18.27 168.25-17.9 169.49-17.9L169.49-17.9 180.94-17.9Q181.85-18.04 182.8-18.27 183.75-18.51 184.53-19.07 185.31-19.63 185.83-20.63 186.34-21.63 186.34-23.29L186.34-23.29 186.34-35.01 192.69-35.01ZM226.11-17.5L226.11-8.91Q226.11-7.28 225.69-5.97 225.28-4.66 224.59-3.67 223.91-2.69 223.01-1.99 222.1-1.29 221.12-0.85 220.13-0.42 219.11-0.21 218.1 0 217.2 0L217.2 0 205.75 0Q204.43 0 202.87-0.46 201.3-0.93 199.97-1.99 198.64-3.05 197.75-4.75 196.86-6.45 196.86-8.91L196.86-8.91 196.86-17.5Q196.86-19.95 197.75-21.64 198.64-23.34 199.97-24.4 201.3-25.46 202.87-25.93 204.43-26.39 205.75-26.39L205.75-26.39 217.2-26.39Q219.64-26.39 221.35-25.51 223.06-24.63 224.11-23.3 225.16-21.97 225.63-20.41 226.11-18.85 226.11-17.5L226.11-17.5ZM219.76-8.91L219.76-17.46Q219.76-18.77 219.1-19.41 218.44-20.04 217.2-20.04L217.2-20.04 205.8-20.04Q204.53-20.04 203.87-19.4 203.21-18.75 203.21-17.5L203.21-17.5 203.21-8.91Q203.21-7.67 203.87-7.01 204.53-6.35 205.8-6.35L205.8-6.35 217.2-6.35Q218.49-6.35 219.13-7.01 219.76-7.67 219.76-8.91L219.76-8.91ZM260.36-26.39L260.36-3.2Q260.36-2.51 260.11-1.93 259.87-1.34 259.44-0.92 259.02-0.49 258.44-0.24 257.87 0 257.21 0L257.21 0 242.85 0Q241.68 0 240.35-0.27 239.02-0.54 237.73-1.14 236.43-1.73 235.22-2.65 234.02-3.56 233.11-4.87 232.21-6.18 231.66-7.89 231.11-9.59 231.11-11.74L231.11-11.74 231.11-26.39 237.46-26.39 237.46-11.74Q237.46-10.5 237.89-9.51 238.31-8.52 239.05-7.81 239.78-7.1 240.77-6.73 241.75-6.35 242.9-6.35L242.9-6.35 254.01-6.35 254.01-26.39 260.36-26.39ZM289.41-26.39L289.41-20.04 275.13-20.04Q273.83-20.04 273.17-19.4 272.51-18.75 272.51-17.5L272.51-17.5 272.51 0 266.17 0 266.17-17.5Q266.17-19.14 266.58-20.43 267-21.73 267.69-22.72 268.39-23.71 269.29-24.4 270.19-25.1 271.18-25.54 272.17-25.98 273.19-26.18 274.2-26.39 275.08-26.39L275.08-26.39 289.41-26.39ZM348.41-35.01L354.86-35.01 349-2.2Q348.8-1.22 348.12-0.51 347.44 0.2 346.46 0.39L346.46 0.39Q345.46 0.56 344.57 0.17 343.68-0.22 343.16-1.05L343.16-1.05 331.54-20.14 319.9-1.05Q319.48-0.34 318.76 0.05 318.04 0.44 317.21 0.44L317.21 0.44Q316.06 0.44 315.18-0.29 314.31-1.03 314.11-2.2L314.11-2.2 308.2-35.01 314.65-35.01 318.85-11.89 328.86-27.86Q329.27-28.56 329.99-28.96 330.71-29.35 331.54-29.35L331.54-29.35Q332.37-29.35 333.08-28.96 333.79-28.56 334.25-27.86L334.25-27.86 344.21-11.89 348.41-35.01ZM385.89-17.65L385.89-8.74Q385.89-7.42 385.42-5.9 384.96-4.37 383.92-3.06 382.88-1.76 381.21-0.88 379.54 0 377.15 0L377.15 0 365.7 0Q364.38 0 362.85-0.46 361.33-0.93 360.02-1.97 358.71-3 357.83-4.68 356.95-6.35 356.95-8.74L356.95-8.74Q356.95-10.06 357.42-11.6 357.88-13.13 358.92-14.44 359.96-15.75 361.63-16.63 363.3-17.5 365.7-17.5L365.7-17.5 377.15-17.5 377.15-11.45 365.7-11.45Q364.4-11.45 363.69-10.66 362.99-9.86 362.99-8.69L362.99-8.69Q362.99-7.45 363.8-6.75 364.62-6.05 365.74-6.05L365.74-6.05 377.15-6.05Q378.44-6.05 379.15-6.84 379.86-7.62 379.86-8.79L379.86-8.79 379.86-17.65Q379.86-18.9 379.09-19.63 378.32-20.36 377.15-20.36L377.15-20.36 363.2-20.36 363.2-26.39 377.15-26.39Q378.46-26.39 379.99-25.93 381.52-25.46 382.82-24.43 384.13-23.39 385.01-21.72 385.89-20.04 385.89-17.65L385.89-17.65ZM420.4-26.39L420.4 2.54Q420.4 4.17 419.99 5.48 419.57 6.79 418.89 7.78 418.21 8.76 417.3 9.46 416.4 10.16 415.41 10.6 414.42 11.04 413.42 11.24 412.42 11.45 411.52 11.45L411.52 11.45 400.07 11.45 400.07 5.1 411.52 5.1Q412.79 5.1 413.42 4.44 414.06 3.78 414.06 2.54L414.06 2.54 414.06-26.39 420.4-26.39ZM411.52-6.35L411.52 0 400.07 0Q398.7 0 397.15-0.46 395.6-0.93 394.26-1.99 392.91-3.05 392.04-4.75 391.16-6.45 391.16-8.91L391.16-8.91 391.16-26.39 397.5-26.39 397.5-8.91Q397.5-7.67 398.16-7.01 398.82-6.35 400.12-6.35L400.12-6.35 411.52-6.35ZM432.85-7.79L429.07 4.49 424.6 4.49 426.87-7.79 432.85-7.79ZM487.61-35.01L487.61-23.29Q487.61-21.12 487.06-19.41 486.51-17.7 485.61-16.39 484.7-15.09 483.5-14.16 482.29-13.23 480.99-12.63 479.7-12.04 478.37-11.77 477.04-11.5 475.87-11.5L475.87-11.5 473.3-11.5 473.3 0 466.91 0 466.91-11.5 464.37-11.5Q463.19-11.5 461.86-11.77 460.53-12.04 459.23-12.63 457.92-13.23 456.73-14.16 455.53-15.09 454.61-16.39 453.7-17.7 453.15-19.42 452.6-21.14 452.6-23.29L452.6-23.29 452.6-35.01 458.95-35.01 458.95-23.29Q458.95-22.05 459.34-21.06 459.73-20.07 460.44-19.36 461.14-18.65 462.16-18.27 463.17-17.9 464.42-17.9L464.42-17.9 475.87-17.9Q476.77-18.04 477.72-18.27 478.67-18.51 479.45-19.07 480.24-19.63 480.75-20.63 481.26-21.63 481.26-23.29L481.26-23.29 481.26-35.01 487.61-35.01ZM521.03-17.5L521.03-8.91Q521.03-7.28 520.61-5.97 520.2-4.66 519.52-3.67 518.83-2.69 517.93-1.99 517.03-1.29 516.04-0.85 515.05-0.42 514.03-0.21 513.02 0 512.12 0L512.12 0 500.67 0Q499.35 0 497.79-0.46 496.22-0.93 494.89-1.99 493.56-3.05 492.67-4.75 491.78-6.45 491.78-8.91L491.78-8.91 491.78-17.5Q491.78-19.95 492.67-21.64 493.56-23.34 494.89-24.4 496.22-25.46 497.79-25.93 499.35-26.39 500.67-26.39L500.67-26.39 512.12-26.39Q514.56-26.39 516.27-25.51 517.98-24.63 519.03-23.3 520.08-21.97 520.55-20.41 521.03-18.85 521.03-17.5L521.03-17.5ZM514.68-8.91L514.68-17.46Q514.68-18.77 514.02-19.41 513.36-20.04 512.12-20.04L512.12-20.04 500.72-20.04Q499.45-20.04 498.79-19.4 498.13-18.75 498.13-17.5L498.13-17.5 498.13-8.91Q498.13-7.67 498.79-7.01 499.45-6.35 500.72-6.35L500.72-6.35 512.12-6.35Q513.41-6.35 514.05-7.01 514.68-7.67 514.68-8.91L514.68-8.91ZM555.28-26.39L555.28-3.2Q555.28-2.51 555.04-1.93 554.79-1.34 554.36-0.92 553.94-0.49 553.36-0.24 552.79 0 552.13 0L552.13 0 537.77 0Q536.6 0 535.27-0.27 533.94-0.54 532.65-1.14 531.35-1.73 530.15-2.65 528.94-3.56 528.03-4.87 527.13-6.18 526.58-7.89 526.03-9.59 526.03-11.74L526.03-11.74 526.03-26.39 532.38-26.39 532.38-11.74Q532.38-10.5 532.81-9.51 533.23-8.52 533.97-7.81 534.7-7.1 535.69-6.73 536.68-6.35 537.82-6.35L537.82-6.35 548.93-6.35 548.93-26.39 555.28-26.39ZM584.33-26.39L584.33-20.04 570.05-20.04Q568.75-20.04 568.09-19.4 567.44-18.75 567.44-17.5L567.44-17.5 567.44 0 561.09 0 561.09-17.5Q561.09-19.14 561.5-20.43 561.92-21.73 562.61-22.72 563.31-23.71 564.21-24.4 565.12-25.1 566.1-25.54 567.09-25.98 568.11-26.18 569.12-26.39 570-26.39L570-26.39 584.33-26.39ZM640.06-27.29L640.06-23.24Q640.06-21.07 639.53-19.36 638.99-17.65 638.07-16.35 637.16-15.04 635.96-14.11 634.76-13.18 633.46-12.59 632.15-11.99 630.82-11.72 629.49-11.45 628.32-11.45L628.32-11.45 641.58 0 631.76 0 618.53-11.45 613.96-11.45 613.96-17.8 628.32-17.8Q629.52-17.9 630.5-18.3 631.49-18.7 632.21-19.38 632.93-20.07 633.32-21.03 633.71-22 633.71-23.24L633.71-23.24 633.71-27.25Q633.71-27.78 633.58-28.06 633.45-28.34 633.24-28.48 633.03-28.61 632.8-28.64 632.57-28.66 632.37-28.66L632.37-28.66 611.42-28.66 611.42 0 605.08 0 605.08-31.81Q605.08-32.47 605.32-33.06 605.57-33.64 605.99-34.08 606.42-34.52 607.01-34.77 607.59-35.01 608.28-35.01L608.28-35.01 632.37-35.01Q634.5-35.01 635.96-34.24 637.43-33.47 638.34-32.31 639.26-31.15 639.66-29.81 640.06-28.47 640.06-27.29L640.06-27.29ZM673.85-17.65L673.85-17.65Q673.85-16.33 673.38-14.81 672.92-13.28 671.88-11.98 670.85-10.67 669.17-9.79 667.5-8.91 665.11-8.91L665.11-8.91 653.66-8.91 653.66-14.94 665.11-14.94Q666.4-14.94 667.11-15.73 667.82-16.53 667.82-17.7L667.82-17.7Q667.82-18.95 667.03-19.65 666.23-20.36 665.11-20.36L665.11-20.36 653.66-20.36Q652.36-20.36 651.66-19.57 650.95-18.77 650.95-17.6L650.95-17.6 650.95-8.74Q650.95-7.47 651.74-6.76 652.54-6.05 653.71-6.05L653.71-6.05 665.11-6.05 665.11 0 653.66 0Q652.34 0 650.81-0.46 649.29-0.93 647.98-1.97 646.68-3 645.8-4.68 644.92-6.35 644.92-8.74L644.92-8.74 644.92-17.65Q644.92-18.97 645.38-20.5 645.85-22.02 646.88-23.33 647.92-24.63 649.59-25.51 651.27-26.39 653.66-26.39L653.66-26.39 665.11-26.39Q666.43-26.39 667.95-25.93 669.48-25.46 670.78-24.43 672.09-23.39 672.97-21.72 673.85-20.04 673.85-17.65ZM703.68-6.35L703.68 0 686.47 0Q685.15 0 683.59-0.46 682.03-0.93 680.69-1.99 679.36-3.05 678.47-4.75 677.58-6.45 677.58-8.91L677.58-8.91 677.58-17.5Q677.58-18.41 677.79-19.41 678-20.41 678.44-21.4 678.88-22.39 679.57-23.29 680.27-24.19 681.26-24.88 682.24-25.56 683.54-25.98 684.83-26.39 686.47-26.39L686.47-26.39 703.68-26.39 703.68-20.04 686.47-20.04Q685.22-20.04 684.58-19.41 683.93-18.77 683.93-17.46L683.93-17.46 683.93-8.91Q683.93-7.67 684.59-7.01 685.25-6.35 686.52-6.35L686.52-6.35 703.68-6.35ZM715.37-37.55L715.37-31.81 709.02-31.81 709.02-37.55 715.37-37.55ZM715.37-26.39L715.37 0 709.02 0 709.02-26.39 715.37-26.39ZM750.55-17.5L750.55-8.91Q750.55-7.28 750.14-5.97 749.72-4.66 749.04-3.67 748.35-2.69 747.45-1.99 746.55-1.29 745.56-0.85 744.57-0.42 743.57-0.21 742.57 0 741.66 0L741.66 0 730.21 0 730.21-6.35 741.66-6.35Q742.93-6.35 743.57-7.01 744.2-7.67 744.2-8.91L744.2-8.91 744.2-17.46Q744.2-18.77 743.56-19.41 742.91-20.04 741.66-20.04L741.66-20.04 730.26-20.04Q728.97-20.04 728.31-19.4 727.65-18.75 727.65-17.5L727.65-17.5 727.65 8.25 721.3 8.25 721.3-17.5Q721.3-19.14 721.72-20.43 722.13-21.73 722.83-22.72 723.52-23.71 724.43-24.4 725.33-25.1 726.32-25.54 727.31-25.98 728.32-26.18 729.33-26.39 730.21-26.39L730.21-26.39 741.66-26.39Q743.3-26.39 744.59-25.98 745.89-25.56 746.88-24.88 747.86-24.19 748.56-23.29 749.26-22.39 749.7-21.4 750.14-20.41 750.34-19.41 750.55-18.41 750.55-17.5L750.55-17.5ZM784.36-17.65L784.36-17.65Q784.36-16.33 783.9-14.81 783.43-13.28 782.4-11.98 781.36-10.67 779.69-9.79 778.01-8.91 775.62-8.91L775.62-8.91 764.17-8.91 764.17-14.94 775.62-14.94Q776.92-14.94 777.62-15.73 778.33-16.53 778.33-17.7L778.33-17.7Q778.33-18.95 777.54-19.65 776.74-20.36 775.62-20.36L775.62-20.36 764.17-20.36Q762.88-20.36 762.17-19.57 761.46-18.77 761.46-17.6L761.46-17.6 761.46-8.74Q761.46-7.47 762.25-6.76 763.05-6.05 764.22-6.05L764.22-6.05 775.62-6.05 775.62 0 764.17 0Q762.85 0 761.33-0.46 759.8-0.93 758.49-1.97 757.19-3 756.31-4.68 755.43-6.35 755.43-8.74L755.43-8.74 755.43-17.65Q755.43-18.97 755.89-20.5 756.36-22.02 757.4-23.33 758.43-24.63 760.11-25.51 761.78-26.39 764.17-26.39L764.17-26.39 775.62-26.39Q776.94-26.39 778.47-25.93 779.99-25.46 781.3-24.43 782.6-23.39 783.48-21.72 784.36-20.04 784.36-17.65ZM840.58-27.29L840.58-23.24Q840.58-21.07 840.04-19.36 839.51-17.65 838.59-16.35 837.68-15.04 836.48-14.11 835.28-13.18 833.98-12.59 832.67-11.99 831.34-11.72 830.01-11.45 828.84-11.45L828.84-11.45 842.1 0 832.28 0 819.05-11.45 814.48-11.45 814.48-17.8 828.84-17.8Q830.04-17.9 831.02-18.3 832.01-18.7 832.73-19.38 833.45-20.07 833.84-21.03 834.23-22 834.23-23.24L834.23-23.24 834.23-27.25Q834.23-27.78 834.1-28.06 833.97-28.34 833.76-28.48 833.55-28.61 833.32-28.64 833.09-28.66 832.89-28.66L832.89-28.66 811.94-28.66 811.94 0 805.6 0 805.6-31.81Q805.6-32.47 805.84-33.06 806.08-33.64 806.51-34.08 806.94-34.52 807.53-34.77 808.11-35.01 808.79-35.01L808.79-35.01 832.89-35.01Q835.02-35.01 836.48-34.24 837.95-33.47 838.86-32.31 839.78-31.15 840.18-29.81 840.58-28.47 840.58-27.29L840.58-27.29ZM874.69-17.5L874.69-8.91Q874.69-7.28 874.27-5.97 873.86-4.66 873.17-3.67 872.49-2.69 871.59-1.99 870.68-1.29 869.69-0.85 868.7-0.42 867.69-0.21 866.68 0 865.77 0L865.77 0 854.32 0Q853.01 0 851.44-0.46 849.88-0.93 848.55-1.99 847.22-3.05 846.33-4.75 845.44-6.45 845.44-8.91L845.44-8.91 845.44-17.5Q845.44-19.95 846.33-21.64 847.22-23.34 848.55-24.4 849.88-25.46 851.44-25.93 853.01-26.39 854.32-26.39L854.32-26.39 865.77-26.39Q868.22-26.39 869.93-25.51 871.63-24.63 872.68-23.3 873.73-21.97 874.21-20.41 874.69-18.85 874.69-17.5L874.69-17.5ZM868.34-8.91L868.34-17.46Q868.34-18.77 867.68-19.41 867.02-20.04 865.77-20.04L865.77-20.04 854.37-20.04Q853.1-20.04 852.44-19.4 851.79-18.75 851.79-17.5L851.79-17.5 851.79-8.91Q851.79-7.67 852.44-7.01 853.1-6.35 854.37-6.35L854.37-6.35 865.77-6.35Q867.07-6.35 867.7-7.01 868.34-7.67 868.34-8.91L868.34-8.91ZM908.94-26.39L908.94-3.2Q908.94-2.51 908.69-1.93 908.45-1.34 908.02-0.92 907.59-0.49 907.02-0.24 906.45 0 905.79 0L905.79 0 891.43 0Q890.26 0 888.93-0.27 887.6-0.54 886.3-1.14 885.01-1.73 883.8-2.65 882.59-3.56 881.69-4.87 880.79-6.18 880.24-7.89 879.69-9.59 879.69-11.74L879.69-11.74 879.69-26.39 886.04-26.39 886.04-11.74Q886.04-10.5 886.46-9.51 886.89-8.52 887.62-7.81 888.36-7.1 889.34-6.73 890.33-6.35 891.48-6.35L891.48-6.35 902.59-6.35 902.59-26.39 908.94-26.39ZM938.89-26.39L938.89-20.04 927.81-20.04 927.81 0 921.38 0 921.38-20.04 913.13-20.04 913.13-26.39 921.38-26.39 921.38-35.01 927.81-35.01 927.81-26.39 938.89-26.39ZM971.36-17.65L971.36-17.65Q971.36-16.33 970.89-14.81 970.43-13.28 969.39-11.98 968.36-10.67 966.68-9.79 965.01-8.91 962.62-8.91L962.62-8.91 951.17-8.91 951.17-14.94 962.62-14.94Q963.91-14.94 964.62-15.73 965.33-16.53 965.33-17.7L965.33-17.7Q965.33-18.95 964.53-19.65 963.74-20.36 962.62-20.36L962.62-20.36 951.17-20.36Q949.87-20.36 949.17-19.57 948.46-18.77 948.46-17.6L948.46-17.6 948.46-8.74Q948.46-7.47 949.25-6.76 950.04-6.05 951.22-6.05L951.22-6.05 962.62-6.05 962.62 0 951.17 0Q949.85 0 948.32-0.46 946.8-0.93 945.49-1.97 944.19-3 943.31-4.68 942.43-6.35 942.43-8.74L942.43-8.74 942.43-17.65Q942.43-18.97 942.89-20.5 943.36-22.02 944.39-23.33 945.43-24.63 947.1-25.51 948.78-26.39 951.17-26.39L951.17-26.39 962.62-26.39Q963.94-26.39 965.46-25.93 966.99-25.46 968.29-24.43 969.6-23.39 970.48-21.72 971.36-20.04 971.36-17.65ZM982.83-35.01L981.34-8.59 976.97-8.59 975.48-35.01 982.83-35.01ZM982.34-3.2L982.34-3.2Q982.34-2.54 982.09-1.97 981.83-1.39 981.4-0.96 980.97-0.54 980.4-0.29 979.83-0.05 979.19-0.05L979.19-0.05Q978.53-0.05 977.96-0.29 977.39-0.54 976.96-0.96 976.53-1.39 976.29-1.97 976.04-2.54 976.04-3.2L976.04-3.2Q976.04-3.83 976.29-4.41 976.53-4.98 976.96-5.41 977.39-5.83 977.96-6.09 978.53-6.35 979.19-6.35L979.19-6.35Q979.83-6.35 980.4-6.09 980.97-5.83 981.4-5.41 981.83-4.98 982.09-4.41 982.34-3.83 982.34-3.2Z" opacity="1" transform="matrix(1,0,0,1,0,0)" fill="#000000" class="slogan-text-1" data-fill-palette-color="secondary" id="text-1"></path></svg></g></svg></g></svg></g></svg></g><g></g></svg></g><defs></defs><mask id="225e31d7-7892-4bf3-90da-5089abcb90c8"><g id="SvgjsG1117"><svg viewBox="0 0 258.0149774069578 280" height="280" width="258.0149774069578"><g><svg viewBox="0 0 278.2696 301.9804849433477" height="280" width="258.0149774069578"><g><svg viewBox="0 0 278.2696 301.9804849433477" height="301.9804849433477" width="278.2696"><g id="SvgjsG1116"><svg viewBox="0 0 278.2696 301.9804849433477" height="301.9804849433477" width="278.2696" id="SvgjsSvg1115"><g><svg viewBox="0 0 278.2696 278.2696" height="278.2696" width="278.2696"><g transform="matrix(1,0,0,1,89.94321971048298,91.47198473678867)"><svg viewBox="0 0 98.38316057903407 95.32563052642267" height="95.32563052642267" width="98.38316057903407"><g><svg xmlns="http://www.w3.org/2000/svg" xmlns:xlink="http://www.w3.org/1999/xlink" version="1.1" x="0" y="0" viewBox="0.5 1.025566683793627 33 31.974433316206373" enable-background="new 0 0 34 34" xml:space="preserve" height="95.32563052642267" width="98.38316057903407" class="icon-kg-0" data-fill-palette-color="accent" id="SvgjsSvg1114"><g fill="white"><path d="M10.5 12.7c0.4 0.4 1 0.4 1.4 0 2.3-2.2 0.9-4.3 0-5.7-1-1.6-1.3-2.2 0-3.2 0.4-0.4 0.5-1 0.1-1.4-0.3-0.4-1-0.5-1.4-0.2-2.8 2.3-1.3 4.6-0.4 5.9 1 1.5 1.3 2.1 0.3 3.1C10.1 11.6 10.1 12.3 10.5 12.7z" fill="white"></path><path d="M15.9 11.7c0.4 0.4 1 0.4 1.4 0 2.3-2.2 0.9-4.3 0-5.7-1-1.6-1.3-2.2 0-3.2 0.4-0.4 0.5-1 0.1-1.4-0.3-0.4-1-0.5-1.4-0.2-2.8 2.3-1.3 4.6-0.4 5.9 1 1.5 1.3 2.1 0.3 3.1C15.6 10.6 15.5 11.3 15.9 11.7z" fill="white"></path><path d="M21.3 12.7c0.4 0.4 1 0.4 1.4 0 2.3-2.2 0.9-4.3 0-5.7-1-1.6-1.3-2.2 0-3.2 0.4-0.4 0.5-1 0.1-1.4-0.3-0.4-1-0.5-1.4-0.2-2.8 2.3-1.3 4.6-0.4 5.9 1 1.5 1.3 2.1 0.3 3.1C21 11.6 21 12.3 21.3 12.7z" fill="white"></path><path d="M16.2 24c6.6 0 14.8-3.7 17.3-9l-32 0C3.9 20.3 9.6 24 16.2 24z" fill="white"></path><path d="M2.5 32v-2h27v2c0 0.6 0.4 1 1 1s1-0.4 1-1v-3c0-0.6-0.4-1-1-1h-5.3l3.3-5-4 3v2H8.6v-2l-4-3 3.3 5H1.5c-0.6 0-1 0.4-1 1v3c0 0.6 0.4 1 1 1S2.5 32.6 2.5 32z" fill="white"></path></g></svg></g></svg></g><g></g></svg></g><g transform="matrix(1,0,0,1,53.1494936,293.37938297241465)"><svg viewBox="0 0 171.97061280000003 8.601101970933016" height="8.601101970933016" width="171.97061280000003"><g transform="matrix(1,0,0,1,0,0)"><svg width="171.97061280000003" viewBox="3.22 -37.55 979.61 49" height="8.601101970933016" data-palette-color="#e55e3a"></svg></g></svg></g></svg></g></svg></g><g></g></svg></g><defs><mask></mask></defs></svg></g></mask><linearGradient x1="0" x2="1" y1="0.5" y2="0.5" id="df0bad54-a80a-44ca-9844-b9ae0937b2bd"><stop stop-color="#ffa62e" offset="0"></stop><stop stop-color="#f71b3d" offset="1"></stop></linearGradient><rect width="258.0149774069578" height="280" fill="#000000" mask="url(#225e31d7-7892-4bf3-90da-5089abcb90c8)" data-fill-palette-color="accent"></rect></svg><rect width="258.0149774069578" height="280" fill="none" stroke="none" visibility="hidden"></rect></g></svg></g></svg>