<svg width="344" height="350" viewBox="0 0 344 350" fill="none" xmlns="http://www.w3.org/2000/svg">
<mask id="mask0_39_317" style="mask-type:luminance" maskUnits="userSpaceOnUse" x="0" y="0" width="344" height="350">
<path d="M97.2826 125.951C101.567 130.236 107.994 130.236 112.279 125.951C136.916 102.385 121.919 79.8909 112.279 64.8945C101.567 47.7559 98.3537 41.3288 112.279 30.6172C116.564 26.3325 117.635 19.9055 113.35 15.6208C110.137 11.3361 102.638 10.265 98.3538 13.4785C68.361 38.1153 84.4286 62.7522 94.0691 76.6774C104.781 92.7449 107.994 99.1719 97.2826 109.884C92.9979 114.168 92.9979 121.666 97.2826 125.951Z" fill="white"/>
<path d="M155.126 115.239C159.41 119.524 165.837 119.524 170.122 115.239C194.759 91.6738 179.762 69.1792 170.122 54.1829C159.41 37.0442 156.197 30.6172 170.122 19.9055C174.407 15.6208 175.478 9.1938 171.193 4.90913C167.98 0.624453 160.481 -0.446715 156.197 2.76679C126.204 27.4037 142.272 52.0405 151.912 65.9657C162.624 82.0333 165.837 88.4603 155.126 99.1719C151.912 103.457 150.841 110.955 155.126 115.239Z" fill="white"/>
<path d="M212.969 125.951C217.253 130.236 223.68 130.236 227.965 125.951C252.602 102.385 237.606 79.8909 227.965 64.8945C217.253 47.7559 214.04 41.3288 227.965 30.6172C232.25 26.3325 233.321 19.9055 229.036 15.6208C225.823 11.3361 218.325 10.265 214.04 13.4785C184.047 38.1153 200.115 62.7522 209.755 76.6774C220.467 92.7449 223.68 99.1719 212.969 109.884C209.755 114.168 209.755 121.666 212.969 125.951Z" fill="white"/>
<path d="M158.339 248.379C229.036 248.379 316.872 208.746 343.651 151.974H0.877441C26.5855 208.746 87.6421 248.379 158.339 248.379Z" fill="white"/>
<path d="M27.6565 338.307V316.884H316.872V338.307C316.872 344.734 321.157 349.019 327.584 349.019C334.011 349.019 338.295 344.734 338.295 338.307V306.172C338.295 299.745 334.011 295.461 327.584 295.461H270.812L306.16 241.902L263.314 274.037V295.461H92.9978V274.037L50.1511 241.902L85.4996 295.461H16.9448C10.5178 295.461 6.23315 299.745 6.23315 306.172V338.307C6.23315 344.734 10.5178 349.019 16.9448 349.019C23.3718 349.019 27.6565 344.734 27.6565 338.307Z" fill="white"/>
</mask>
<g mask="url(#mask0_39_317)">
<path d="M343.651 0.898315H-9.83435V343.398H343.651V0.898315Z" fill="url(#paint0_linear_39_317)"/>
</g>
<defs>
<linearGradient id="paint0_linear_39_317" x1="-9.83435" y1="172.148" x2="343.651" y2="172.148" gradientUnits="userSpaceOnUse">
<stop stop-color="#FFA62E"/>
<stop offset="1" stop-color="#F71B3D"/>
</linearGradient>
</defs>
</svg>
