<svg width="1001" height="1001" viewBox="0 0 1001 1001" fill="none" xmlns="http://www.w3.org/2000/svg">
<g clip-path="url(#clip0_39_405)">
<path d="M61.5189 290.603L70.9935 294.138C74.3889 295.407 77.2668 296.955 79.6238 298.791C81.9592 300.616 83.8814 302.625 85.3869 304.813C86.8852 307.023 88.0098 309.326 88.7679 311.722C89.5224 314.119 89.9859 316.512 90.1512 318.894C90.32 321.276 90.2302 323.59 89.8817 325.832C89.5116 328.066 88.9906 330.089 88.3152 331.904L126.677 310.896L118.112 333.851L79.7603 354.823L75.7829 365.487L60.9404 359.95L73.4763 326.363C74.0116 324.448 74.2595 322.605 74.22 320.841C74.1589 319.066 73.8104 317.413 73.1708 315.883C72.5277 314.352 71.5612 313.012 70.2606 311.859C68.9958 310.691 67.3862 309.742 65.4424 309.013L56.0684 305.517C55.2312 305.205 54.5593 305.072 54.0527 305.111C53.5461 305.154 53.1222 305.291 52.7772 305.524C52.4467 305.787 52.2024 306.096 52.0443 306.451C51.8646 306.796 51.7173 307.116 51.6095 307.411L33.3214 356.415L100.359 381.429L94.822 396.268L20.4155 368.505C19.3951 368.124 18.4969 367.571 17.71 366.838C16.9483 366.116 16.3483 365.3 15.9171 364.388C15.4608 363.468 15.2129 362.473 15.1734 361.402C15.1482 360.36 15.3351 359.307 15.7339 358.247L36.7706 301.874C38.003 298.568 39.6486 295.996 41.7002 294.156C43.7517 292.317 45.9399 291.02 48.2609 290.261C50.6035 289.511 52.9461 289.212 55.2887 289.363C57.6098 289.507 59.6829 289.92 61.5189 290.603Z" fill="#E55E3A"/>
<path d="M133.928 209.215L147.139 218.216L118.977 259.556L105.766 250.556L133.928 209.215ZM167.576 223.497L180.665 232.415L148.486 279.655C147.247 281.473 145.576 283.241 143.467 284.962C141.372 286.665 138.969 287.937 136.259 288.781C133.565 289.604 130.626 289.841 127.446 289.489C124.281 289.115 121 287.772 117.601 285.458L70.3611 253.279C69.4628 252.669 68.7191 251.914 68.1334 251.012C67.5514 250.15 67.1669 249.212 66.9729 248.206C66.7466 247.204 66.7466 246.18 66.9657 245.131C67.1921 244.114 67.6232 243.136 68.2592 242.199L108.439 183.213L121.532 192.131L85.7784 244.617L126.519 272.369C128.236 273.54 129.85 273.982 131.362 273.694C132.907 273.4 134.269 272.387 135.455 270.648L167.576 223.497Z" fill="#E55E3A"/>
<path d="M241.874 154.973L252.549 166.675L210.321 205.199C209.232 206.19 207.95 207.135 206.469 208.023C204.993 208.878 203.404 209.593 201.701 210.168C199.98 210.757 198.177 211.127 196.287 211.278C194.397 211.432 192.471 211.292 190.509 210.857C188.544 210.426 186.579 209.632 184.613 208.482C182.63 207.347 180.719 205.773 178.879 203.758L149.956 172.05C148.978 170.979 148.044 169.704 147.157 168.227C146.284 166.732 145.562 165.134 144.99 163.434C144.419 161.731 144.063 159.927 143.93 158.023C143.794 156.119 143.945 154.182 144.376 152.221C144.807 150.255 145.583 148.29 146.697 146.321C147.829 144.37 149.406 142.476 151.422 140.637L193.653 102.113L204.328 113.816L162.1 152.339C160.566 153.74 159.761 155.206 159.689 156.744C159.617 158.314 160.307 159.895 161.755 161.483L190.581 193.08C191.95 194.578 193.427 195.375 195.011 195.465C196.599 195.523 198.144 194.865 199.646 193.496L241.874 154.973Z" fill="#E55E3A"/>
<path d="M236.697 73.3696L284.404 146.587L271.132 155.235L223.425 82.0143L236.697 73.3696Z" fill="#E55E3A"/>
<path d="M364.311 48.3233L367.1 54.9774C368.49 58.2973 369.324 61.4483 369.597 64.4197C369.873 67.3946 369.73 70.1792 369.166 72.7769C368.601 75.371 367.689 77.7567 366.424 79.934C365.192 82.1257 363.765 84.0982 362.145 85.8516C360.514 87.5834 358.76 89.0888 356.885 90.3715C355.024 91.6219 353.191 92.6243 351.384 93.3824L318.318 107.222L312.203 92.6099L345.269 78.7699C347.076 77.8285 348.607 76.7327 349.861 75.4716C351.125 74.2356 352.085 72.8631 352.739 71.3612C353.392 69.8558 353.709 68.2318 353.684 66.4856C353.669 64.761 353.27 62.9645 352.487 61.0926L349.703 54.4385C348.736 52.6959 347.633 51.1797 346.386 49.8934C345.139 48.6071 343.778 47.6334 342.294 46.9687C340.81 46.304 339.207 45.9807 337.483 45.995C335.773 45.9771 333.958 46.3687 332.043 47.1735L299.11 60.9597C297.148 61.7824 295.876 62.9034 295.291 64.3227C294.694 65.7778 294.791 67.4521 295.589 69.3492L320.75 129.466L306.138 135.582L280.976 75.4644C279.41 71.7205 278.77 68.2533 279.061 65.0664C279.32 61.8687 280.139 59.0374 281.519 56.5727C282.866 54.0971 284.591 51.9881 286.689 50.2419C288.777 48.5316 290.832 47.249 292.858 46.401L325.928 32.561C329.226 31.1813 332.363 30.3513 335.338 30.0747C338.302 29.8304 341.079 29.9884 343.674 30.5561C346.268 31.1202 348.653 32.0328 350.834 33.2976C353.004 34.5371 354.977 35.9635 356.752 37.5768C358.505 39.2008 360.011 40.9541 361.272 42.8368C362.544 44.6872 363.557 46.516 364.311 48.3233Z" fill="#E55E3A"/>
<path d="M467.135 37.0054L469.632 52.7964L420.225 60.6003L417.728 44.8129L467.135 37.0054ZM479.785 71.3001L482.257 86.9474L425.798 95.8687C423.624 96.2136 421.192 96.2064 418.49 95.8471C415.816 95.4878 413.244 94.6076 410.772 93.2135C408.325 91.8158 406.141 89.8361 404.218 87.2779C402.321 84.7162 401.053 81.4071 400.413 77.347L391.492 20.8875C391.323 19.8132 391.363 18.7533 391.614 17.7113C391.844 16.6945 392.261 15.7747 392.865 14.9447C393.44 14.0968 394.183 13.389 395.099 12.8321C395.994 12.3003 397 11.9446 398.121 11.765L468.619 0.626831L471.09 16.2741L408.365 26.1835L416.057 74.8751C416.381 76.9267 417.164 78.407 418.411 79.3088C419.682 80.2322 421.357 80.5304 423.43 80.2034L479.785 71.3001Z" fill="#E55E3A"/>
<path d="M649.527 42.5781L647.454 52.4767C646.71 56.0229 645.611 59.1021 644.152 61.7106C642.697 64.2939 641.005 66.4964 639.068 68.3144C637.11 70.1253 635.001 71.5876 632.745 72.6942C630.488 73.8008 628.196 74.6164 625.864 75.141C623.532 75.6656 621.233 75.9243 618.962 75.9171C616.698 75.8883 614.618 75.6764 612.725 75.2811L639.259 110.05L615.276 105.031L588.778 70.269L577.64 67.9371L580.884 52.4336L615.969 59.7776C617.942 60.0183 619.803 59.986 621.545 59.6841C623.292 59.3572 624.872 58.7643 626.288 57.8984C627.704 57.0325 628.886 55.8756 629.831 54.4169C630.797 52.9905 631.491 51.2587 631.915 49.2251L633.966 39.4343C634.149 38.5576 634.182 37.875 634.063 37.3791C633.945 36.8869 633.743 36.4845 633.46 36.1827C633.151 35.8952 632.809 35.7012 632.436 35.597C632.066 35.4713 631.728 35.3743 631.422 35.3096L580.226 24.5954L565.571 94.6292L550.067 91.3847L566.336 13.6549C566.559 12.5914 566.972 11.6141 567.576 10.7266C568.176 9.86434 568.894 9.14934 569.728 8.58525C570.569 7.996 571.514 7.60078 572.566 7.40317C573.59 7.22352 574.661 7.24867 575.771 7.48221L634.667 19.806C638.12 20.5282 640.911 21.7678 643.035 23.5211C645.162 25.2745 646.775 27.2398 647.875 29.4207C648.97 31.6232 649.617 33.8976 649.818 36.233C650.027 38.5468 649.93 40.6631 649.527 42.5781Z" fill="#E55E3A"/>
<path d="M758.502 111.922L751.021 126.861C748.639 131.615 745.628 135.578 741.985 138.754C738.342 141.93 734.346 144.241 729.999 145.685C725.623 147.14 721.038 147.683 716.252 147.313C711.466 146.942 706.727 145.584 702.038 143.235L682.852 133.627C678.163 131.277 674.225 128.295 671.042 124.67C667.855 121.048 665.545 117.053 664.111 112.687C662.645 108.333 662.092 103.744 662.451 98.9227C662.789 94.0938 664.147 89.3008 666.529 84.5474L674.013 69.6079C676.385 64.876 679.399 60.9273 683.064 57.7655C686.718 54.5678 690.728 52.2539 695.097 50.8168C699.441 49.3724 704.018 48.8406 708.829 49.2215C713.647 49.5808 718.404 50.9353 723.089 53.2851L742.276 62.8927C746.965 65.2425 750.885 68.2318 754.039 71.8643C757.205 75.4752 759.518 79.4597 760.984 83.8144C762.429 88.1583 762.968 92.7537 762.598 97.5969C762.238 102.415 760.873 107.194 758.502 111.922ZM736.825 119.755L744.306 104.812C745.714 102.002 746.541 99.2425 746.792 96.5298C747.044 93.8172 746.763 91.2446 745.955 88.8158C745.136 86.4049 743.817 84.1773 742.003 82.1329C740.178 80.1101 737.903 78.4178 735.183 77.0561L715.997 67.4485C713.23 66.0652 710.493 65.246 707.78 64.9945C705.056 64.7646 702.484 65.0448 700.062 65.8317C697.608 66.6293 695.37 67.9408 693.351 69.766C691.306 71.5804 689.582 73.8907 688.173 76.7004L680.693 91.6398C679.295 94.428 678.483 97.1838 678.257 99.9072C678.005 102.62 678.296 105.196 679.126 107.639C679.934 110.072 681.253 112.299 683.075 114.322C684.9 116.345 687.196 118.048 689.962 119.431L709.052 128.992C711.818 130.375 714.556 131.195 717.269 131.446C719.982 131.698 722.554 131.417 724.983 130.605C727.437 129.808 729.675 128.496 731.698 126.671C733.721 124.846 735.428 122.539 736.825 119.755Z" fill="#E55E3A"/>
<path d="M871.91 161.584L819.575 221.316C818.827 222.172 817.979 222.825 817.034 223.285C816.072 223.76 815.087 224.022 814.081 224.069C813.057 224.101 812.044 223.954 811.045 223.627C810.046 223.3 809.13 222.768 808.296 222.039L781.439 198.512C778.895 196.284 776.56 193.759 774.44 190.934C772.335 188.092 770.574 185.042 769.162 181.776C767.728 178.496 766.715 175.036 766.115 171.396C765.547 167.753 765.515 164.013 766.015 160.179C766.55 156.342 767.732 152.461 769.561 148.538C771.39 144.582 773.991 140.676 777.368 136.825L806.148 103.974L818.062 114.412L789.283 147.262C786.336 150.625 784.317 153.884 783.221 157.039C782.111 160.179 781.586 163.157 781.655 165.978C781.737 168.78 782.244 171.374 783.171 173.764C784.098 176.149 785.154 178.23 786.333 180.001C787.497 181.79 788.621 183.256 789.703 184.402C790.788 185.545 791.514 186.278 791.88 186.598L812.816 204.94L859.967 151.125L871.91 161.584Z" fill="#E55E3A"/>
<path d="M943.923 261.338L930.827 270.245L911.195 241.383L852.033 281.621L843.105 268.495L902.267 228.254L882.595 199.335L895.695 190.424L943.923 261.338Z" fill="#E55E3A"/>
<path d="M952.701 373.212L937.844 379.115L919.369 332.633L934.226 326.73L952.701 373.212ZM922.024 393.088L907.304 398.941L886.192 345.823C885.38 343.778 884.851 341.403 884.607 338.691C884.37 336.003 884.661 333.298 885.477 330.582C886.303 327.887 887.755 325.321 889.831 322.885C891.915 320.471 894.865 318.506 898.681 316.986L951.799 295.874C952.809 295.471 953.851 295.281 954.925 295.295C955.967 295.299 956.958 295.5 957.896 295.906C958.852 296.28 959.703 296.851 960.451 297.623C961.166 298.378 961.733 299.283 962.154 300.34L988.515 366.662L973.795 372.511L950.34 313.497L904.53 331.706C902.601 332.475 901.329 333.564 900.722 334.976C900.1 336.42 900.175 338.12 900.951 340.07L922.024 393.088Z" fill="#E55E3A"/>
<path d="M126.443 706.587L117.098 710.058C113.746 711.305 110.599 711.995 107.663 712.135C104.731 712.296 101.993 712.038 99.4496 711.359C96.9129 710.705 94.5883 709.724 92.4792 708.42C90.3702 707.115 88.4875 705.624 86.8311 703.943C85.1532 702.272 83.7304 700.494 82.5663 698.607C81.4022 696.721 80.4824 694.871 79.8105 693.06L64.738 733.459L56.3305 710.83L71.4138 670.464L67.501 659.933L82.1459 654.489L94.4554 687.616C95.2746 689.402 96.2806 690.933 97.477 692.215C98.6627 693.527 99.9885 694.529 101.458 695.223C102.913 695.945 104.501 696.337 106.222 696.39C107.915 696.434 109.722 696.096 111.648 695.381L120.889 691.946C121.704 691.644 122.29 691.31 122.642 690.947C122.998 690.584 123.217 690.203 123.303 689.812C123.389 689.42 123.386 689.032 123.3 688.655C123.21 688.274 123.109 687.94 123.001 687.645L105.047 639.331L38.8939 663.91L33.4398 649.233L106.865 621.948C107.861 621.578 108.885 621.416 109.934 621.467C110.983 621.513 111.971 621.74 112.894 622.146C113.818 622.552 114.626 623.127 115.316 623.874C116.038 624.636 116.595 625.552 116.99 626.615L137.643 682.202C138.853 685.464 139.292 688.446 138.958 691.148C138.591 693.836 137.79 696.222 136.554 698.309C135.286 700.379 133.737 702.103 131.901 703.479C130.054 704.888 128.233 705.926 126.443 706.587Z" fill="#E55E3A"/>
<path d="M163.932 791.701L150.919 800.539L123.203 759.731L136.216 750.892L163.932 791.701ZM138.645 817.376L125.721 826.15L94.0566 779.524C92.835 777.724 91.8254 775.55 91.0241 772.996C90.2049 770.455 89.9031 767.797 90.1223 765.019C90.3271 762.224 91.1786 759.436 92.6841 756.666C94.1536 753.885 96.5609 751.363 99.8987 749.092L146.553 717.406C147.434 716.809 148.389 716.407 149.42 716.206C150.452 716.001 151.461 715.986 152.456 716.159C153.448 716.331 154.371 716.698 155.219 717.262C156.103 717.83 156.861 718.584 157.501 719.525L197.027 777.724L184.103 786.502L148.935 734.716L108.694 762.048C107.016 763.187 106.025 764.506 105.723 765.993C105.435 767.502 105.874 769.119 107.042 770.836L138.645 817.376Z" fill="#E55E3A"/>
<path d="M217.934 892.12L207.389 903.646L165.804 865.604C164.734 864.627 163.706 863.455 162.722 862.097C161.719 860.721 160.868 859.219 160.16 857.592C159.438 855.946 158.913 854.211 158.593 852.378C158.273 850.546 158.248 848.638 158.521 846.658C158.759 844.682 159.344 842.681 160.278 840.654C161.23 838.61 162.614 836.598 164.425 834.622L192.999 803.381C193.962 802.328 195.13 801.301 196.506 800.302C197.882 799.3 199.384 798.448 201.008 797.74C202.636 797.036 204.382 796.522 206.25 796.199C208.101 795.893 210.008 795.868 211.967 796.123C213.928 796.378 215.93 796.964 217.974 797.884C220 798.822 222.002 800.194 223.981 802.005L265.566 840.047L255.025 851.573L213.436 813.531C211.938 812.162 210.422 811.512 208.884 811.577C207.346 811.645 205.862 812.464 204.429 814.034L175.951 845.164C174.596 846.644 173.964 848.16 174.05 849.712C174.104 851.268 174.869 852.719 176.346 854.074L217.934 892.12Z" fill="#E55E3A"/>
<path d="M295.46 858.641L248.388 930.845L235.303 922.315L282.374 850.107L295.46 858.641Z" fill="#E55E3A"/>
<path d="M383.07 928.34L380.332 934.894C378.953 938.192 377.311 940.962 375.403 943.208C373.52 945.457 371.472 947.286 369.259 948.691C367.056 950.074 364.746 951.087 362.335 951.73C359.942 952.381 357.567 952.736 355.21 952.797C352.875 952.869 350.611 952.682 348.413 952.233C346.239 951.795 344.259 951.206 342.473 950.462L309.867 936.834L315.893 922.419L348.499 936.047C350.407 936.687 352.235 937.006 353.992 937.006C355.76 937.039 357.399 936.755 358.904 936.155C360.402 935.576 361.75 934.675 362.946 933.442C364.153 932.246 365.145 930.722 365.917 928.868L368.655 922.315C369.23 920.436 369.536 918.61 369.568 916.843C369.6 915.075 369.338 913.447 368.781 911.956C368.203 910.458 367.326 909.111 366.151 907.911C364.962 906.682 363.42 905.669 361.527 904.878L329.054 891.304C327.114 890.492 325.443 890.384 324.045 890.981C322.622 891.566 321.519 892.792 320.736 894.663L295.952 953.958L281.541 947.933L306.321 888.642C307.859 884.963 309.839 882.11 312.257 880.08C314.707 878.039 317.265 876.648 319.935 875.905C322.626 875.168 325.303 874.938 327.962 875.215C330.631 875.466 332.959 876.009 334.946 876.835L367.552 890.463C370.807 891.825 373.556 893.456 375.798 895.364C378.029 897.294 379.851 899.363 381.256 901.573C382.661 903.786 383.681 906.082 384.306 908.468C384.924 910.875 385.28 913.25 385.373 915.592C385.434 917.949 385.258 920.22 384.845 922.401C384.4 924.596 383.807 926.576 383.07 928.34Z" fill="#E55E3A"/>
<path d="M472.596 949L470.149 964.539L421.418 956.865L423.865 941.325L472.596 949ZM474.047 985.005L471.615 1000.44L415.939 991.67C413.79 991.332 411.512 990.581 409.101 989.417C406.687 988.278 404.542 986.683 402.666 984.624C400.766 982.561 399.314 980.036 398.319 977.043C397.295 974.068 397.097 970.59 397.722 966.602L406.496 910.889C406.662 909.84 407.021 908.87 407.578 907.975C408.135 907.084 408.814 906.337 409.619 905.73C410.423 905.123 411.322 904.702 412.313 904.465C413.334 904.21 414.401 904.171 415.525 904.347L485.024 915.291L482.591 930.722L420.757 920.986L413.19 969.038C412.874 971.042 413.158 972.667 414.038 973.902C414.943 975.146 416.424 975.929 418.475 976.252L474.047 985.005Z" fill="#E55E3A"/>
<path d="M635.364 911.708L637.426 921.46C638.166 924.959 638.389 928.171 638.095 931.1C637.825 934.021 637.164 936.694 636.122 939.112C635.102 941.526 633.79 943.679 632.191 945.576C630.593 947.469 628.839 949.111 626.935 950.502C625.034 951.917 623.069 953.06 621.028 953.936C618.991 954.813 617.025 955.449 615.136 955.851L652.887 976.691L629.267 981.685L591.551 960.838L580.561 963.163L577.327 947.879L611.902 940.567C613.788 940.021 615.452 939.248 616.896 938.25C618.369 937.272 619.555 936.108 620.453 934.757C621.38 933.424 622.002 931.912 622.311 930.216C622.602 928.549 622.534 926.713 622.106 924.701L620.069 915.057C619.889 914.206 619.645 913.577 619.336 913.171C619.027 912.768 618.685 912.492 618.308 912.352C617.931 912.208 617.55 912.154 617.162 912.186C616.774 912.219 616.425 912.269 616.12 912.334L565.693 922.998L580.295 992.043L564.974 995.28L548.77 918.65C548.551 917.608 548.54 916.573 548.741 915.542C548.943 914.511 549.313 913.57 549.848 912.715C550.383 911.859 551.073 911.148 551.914 910.573C552.776 909.97 553.761 909.553 554.871 909.319L612.886 897.049C616.293 896.331 619.303 896.334 621.93 897.064C624.535 897.822 626.777 898.964 628.66 900.495C630.521 902.054 631.997 903.84 633.09 905.856C634.211 907.889 634.969 909.84 635.364 911.708Z" fill="#E55E3A"/>
<path d="M741.536 876.904L748.93 891.606C751.287 896.291 752.649 901.016 753.019 905.78C753.4 910.512 752.875 915.035 751.449 919.351C750.022 923.666 747.751 927.593 744.636 931.135C741.51 934.71 737.637 937.657 733.02 939.981L714.143 949.481C709.522 951.806 704.837 953.164 700.08 953.552C695.359 953.954 690.839 953.44 686.527 952.01C682.234 950.573 678.278 948.303 674.66 945.202C671.053 942.065 668.07 938.156 665.717 933.471L658.319 918.769C655.973 914.105 654.615 909.391 654.248 904.63C653.9 899.855 654.435 895.325 655.851 891.042C657.288 886.748 659.57 882.814 662.695 879.239C665.832 875.632 669.709 872.667 674.329 870.343L693.207 860.847C697.827 858.522 702.509 857.182 707.252 856.826C711.962 856.46 716.471 856.977 720.772 858.378C725.076 859.783 729.021 862.057 732.607 865.208C736.214 868.345 739.189 872.243 741.536 876.904ZM734.975 898.626L727.581 883.928C726.19 881.165 724.494 878.894 722.489 877.116C720.495 875.305 718.3 874.004 715.9 873.206C713.5 872.412 710.96 872.15 708.279 872.416C705.61 872.649 702.926 873.443 700.227 874.802L681.35 884.301C678.63 885.67 676.37 887.363 674.57 889.375C672.759 891.369 671.459 893.564 670.665 895.964C669.849 898.375 669.576 900.922 669.842 903.603C670.075 906.272 670.887 908.989 672.274 911.748L679.672 926.45C681.063 929.213 682.766 931.495 684.778 933.295C686.761 935.084 688.963 936.37 691.385 937.15C693.785 937.944 696.325 938.206 699.006 937.944C701.697 937.7 704.402 936.895 707.122 935.526L725.903 926.077C728.623 924.708 730.882 923.015 732.679 921.003C734.468 919.02 735.769 916.825 736.588 914.41C737.404 911.999 737.684 909.463 737.429 906.808C737.185 904.116 736.369 901.389 734.975 898.626Z" fill="#E55E3A"/>
<path d="M800.554 779.905L852.267 838.739C853 839.573 853.542 840.482 853.887 841.463C854.218 842.462 854.34 843.46 854.261 844.466C854.178 845.472 853.902 846.439 853.431 847.366C852.993 848.297 852.368 849.119 851.552 849.838L825.09 873.099C822.603 875.283 819.841 877.231 816.801 878.934C813.765 880.637 810.553 881.98 807.168 882.961C803.784 883.942 800.273 884.485 796.637 884.596C793.001 884.704 789.34 884.255 785.654 883.245C781.967 882.236 778.317 880.59 774.695 878.301C771.077 876.012 767.599 872.973 764.265 869.179L735.816 836.81L747.547 826.498L775.999 858.867C778.902 862.169 781.831 864.569 784.784 866.06C787.72 867.533 790.565 868.41 793.321 868.69C796.073 869.003 798.678 868.855 801.132 868.241C803.586 867.63 805.76 866.861 807.65 865.938C809.54 865.015 811.106 864.105 812.346 863.211C813.603 862.298 814.412 861.684 814.774 861.364L835.412 843.227L788.823 790.22L800.554 779.905Z" fill="#E55E3A"/>
<path d="M854.444 700.695L867.375 709.462L848.049 737.964L906.459 777.57L897.693 790.501L839.282 750.892L819.916 779.452L806.989 770.685L854.444 700.695Z" fill="#E55E3A"/>
<path d="M918.147 635.684L932.778 641.469L914.634 687.343L900.007 681.555L918.147 635.684ZM953.599 642.141L968.125 647.886L947.398 700.3C946.596 702.322 945.368 704.381 943.704 706.479C942.066 708.585 940.036 710.331 937.621 711.711C935.196 713.116 932.411 713.978 929.271 714.298C926.145 714.646 922.707 714.078 918.952 712.595L866.506 691.853C865.518 691.461 864.648 690.897 863.901 690.157C863.154 689.42 862.572 688.59 862.155 687.674C861.738 686.754 861.522 685.788 861.512 684.771C861.487 683.722 861.681 682.669 862.097 681.609L887.974 616.185L902.5 621.934L879.476 680.143L924.712 698.032C926.598 698.78 928.244 698.859 929.645 698.27C931.057 697.659 932.142 696.387 932.911 694.454L953.599 642.141Z" fill="#E55E3A"/>
<path d="M12.0366 511.4C12.0366 492.702 27.1917 477.547 45.8894 477.547C64.5872 477.547 79.7422 492.702 79.7422 511.4C79.7422 530.098 64.5872 545.253 45.8894 545.253C27.1917 545.253 12.0366 530.098 12.0366 511.4Z" fill="#E55E3A"/>
<path d="M919.818 511.4C919.818 492.702 934.973 477.547 953.671 477.547C972.369 477.547 987.524 492.702 987.524 511.4C987.524 530.098 972.369 545.253 953.671 545.253C934.973 545.253 919.818 530.098 919.818 511.4Z" fill="#E55E3A"/>
</g>
<mask id="mask0_39_405" style="mask-type:luminance" maskUnits="userSpaceOnUse" x="328" y="326" width="344" height="349">
<path d="M425.294 451.523C429.578 455.808 436.005 455.808 440.29 451.523C464.927 427.958 449.93 405.463 440.29 390.467C429.578 373.328 426.365 366.901 440.29 356.189C444.575 351.905 445.646 345.478 441.361 341.193C438.148 336.908 430.649 335.837 426.365 339.051C396.372 363.687 412.44 388.324 422.08 402.25C432.792 418.317 436.005 424.744 425.294 435.456C421.009 439.74 421.009 447.239 425.294 451.523Z" fill="white"/>
<path d="M483.137 440.812C487.421 445.096 493.848 445.096 498.133 440.812C522.77 417.246 507.773 394.751 498.133 379.755C487.421 362.616 484.208 356.189 498.133 345.478C502.418 341.193 503.489 334.766 499.204 330.481C495.991 326.197 488.492 325.125 484.208 328.339C454.215 352.976 470.283 377.613 479.923 391.538C490.635 407.605 493.848 414.032 483.137 424.744C479.923 429.029 478.852 436.527 483.137 440.812Z" fill="white"/>
<path d="M540.98 451.523C545.264 455.808 551.691 455.808 555.976 451.523C580.613 427.958 565.617 405.463 555.976 390.467C545.264 373.328 542.051 366.901 555.976 356.189C560.261 351.905 561.332 345.478 557.047 341.193C553.834 336.908 546.336 335.837 542.051 339.051C512.058 363.687 528.126 388.324 537.766 402.25C548.478 418.317 551.691 424.744 540.98 435.456C537.766 439.74 537.766 447.239 540.98 451.523Z" fill="white"/>
<path d="M486.35 573.951C557.047 573.951 644.883 534.318 671.662 477.546H328.888C354.596 534.318 415.653 573.951 486.35 573.951Z" fill="white"/>
<path d="M355.668 663.879V642.456H644.883V663.879C644.883 670.306 649.168 674.591 655.595 674.591C662.022 674.591 666.306 670.306 666.306 663.879V631.744C666.306 625.317 662.022 621.033 655.595 621.033H598.823L634.171 567.474L591.325 599.609V621.033H421.009V599.609L378.162 567.474L413.511 621.033H344.956C338.529 621.033 334.244 625.317 334.244 631.744V663.879C334.244 670.306 338.529 674.591 344.956 674.591C351.383 674.591 355.668 670.306 355.668 663.879Z" fill="white"/>
</mask>
<g mask="url(#mask0_39_405)">
<path d="M671.662 326.47H334.244V674.591H671.662V326.47Z" fill="url(#paint0_linear_39_405)"/>
</g>
<defs>
<linearGradient id="paint0_linear_39_405" x1="334.244" y1="500.531" x2="671.662" y2="500.531" gradientUnits="userSpaceOnUse">
<stop stop-color="#FFA62E"/>
<stop offset="1" stop-color="#F71B3D"/>
</linearGradient>
<clipPath id="clip0_39_405">
<rect width="999.81" height="999.808" fill="white" transform="translate(0.370361 0.626831)"/>
</clipPath>
</defs>
</svg>
