<svg width="95" height="68" viewBox="0 0 95 68" fill="none" xmlns="http://www.w3.org/2000/svg">
<path d="M95 5.47621C95 6.75177 94.444 7.97509 93.4542 8.87705C92.4644 9.77901 91.122 10.2857 89.7222 10.2857H5.27778C3.87802 10.2857 2.5356 9.77901 1.54583 8.87705C0.55605 7.97509 0 6.75177 0 5.47621C0 4.20064 0.55605 2.97732 1.54583 2.07536C2.5356 1.1734 3.87802 0.666687 5.27778 0.666687H89.7222C91.122 0.666687 92.4644 1.1734 93.4542 2.07536C94.444 2.97732 95 4.20064 95 5.47621Z" fill="#D67E73"/>
<path d="M95 34.3333C95 35.6089 94.444 36.8322 93.4542 37.7342C92.4644 38.6361 91.122 39.1428 89.7222 39.1428H5.27778C3.87802 39.1428 2.5356 38.6361 1.54583 37.7342C0.55605 36.8322 0 35.6089 0 34.3333C0 33.0578 0.55605 31.8344 1.54583 30.9325C2.5356 30.0305 3.87802 29.5238 5.27778 29.5238H89.7222C91.122 29.5238 92.4644 30.0305 93.4542 30.9325C94.444 31.8344 95 33.0578 95 34.3333Z" fill="#D67E73"/>
<path d="M95 63.1905C95 64.466 94.444 65.6894 93.4542 66.5913C92.4644 67.4933 91.122 68 89.7222 68H5.27778C3.87802 68 2.5356 67.4933 1.54583 66.5913C0.55605 65.6894 0 64.466 0 63.1905C0 61.9149 0.55605 60.6916 1.54583 59.7896C2.5356 58.8877 3.87802 58.381 5.27778 58.381H89.7222C91.122 58.381 92.4644 58.8877 93.4542 59.7896C94.444 60.6916 95 61.9149 95 63.1905Z" fill="#D67E73"/>
</svg>
