<svg width="23" height="23" viewBox="0 0 23 23" fill="none" xmlns="http://www.w3.org/2000/svg">
<path d="M11.5 0C9.22552 0 7.00211 0.674463 5.11095 1.9381C3.21978 3.20173 1.7458 4.99779 0.87539 7.09914C0.00498277 9.20049 -0.222756 11.5128 0.220974 13.7435C0.664704 15.9743 1.75997 18.0234 3.36828 19.6317C4.97658 21.24 7.02568 22.3353 9.25646 22.779C11.4872 23.2228 13.7995 22.995 15.9009 22.1246C18.0022 21.2542 19.7983 19.7802 21.0619 17.8891C22.3255 15.9979 23 13.7745 23 11.5C23 9.9898 22.7025 8.49438 22.1246 7.09914C21.5467 5.70389 20.6996 4.43614 19.6317 3.36827C18.5639 2.3004 17.2961 1.45331 15.9009 0.875385C14.5056 0.297456 13.0102 0 11.5 0ZM18.0274 9.47255L11.1274 15.7975C10.9089 15.9979 10.6216 16.1061 10.3253 16.0997C10.0289 16.0932 9.74652 15.9726 9.53695 15.763L6.08695 12.313C5.97712 12.207 5.88951 12.0801 5.82924 11.9398C5.76897 11.7995 5.73724 11.6486 5.73592 11.4959C5.73459 11.3432 5.76369 11.1917 5.82151 11.0504C5.87933 10.9091 5.96472 10.7807 6.0727 10.6727C6.18068 10.5647 6.30908 10.4793 6.45041 10.4215C6.59174 10.3637 6.74317 10.3346 6.89586 10.3359C7.04856 10.3372 7.19946 10.369 7.33977 10.4292C7.48007 10.4895 7.60697 10.5771 7.71305 10.6869L10.3845 13.3584L16.4726 7.77745C16.6974 7.57127 16.9949 7.46283 17.2996 7.47598C17.6043 7.48914 17.8914 7.62281 18.0976 7.8476C18.3037 8.07238 18.4122 8.36986 18.399 8.6746C18.3859 8.97934 18.2522 9.26637 18.0274 9.47255Z" fill="#A67167"/>
</svg>
