<svg width="35" height="36" viewBox="0 0 35 36" fill="none" xmlns="http://www.w3.org/2000/svg">
<path d="M6.57125 32.9094L3.5 10.8H31.5L28.4288 32.9094C28.3095 33.7672 27.8935 34.5521 27.257 35.1198C26.6205 35.6875 25.8062 36.0001 24.9637 36H10.0363C9.19376 36.0001 8.37952 35.6875 7.74301 35.1198C7.10651 34.5521 6.69046 33.7672 6.57125 32.9094ZM33.25 3.6H24.5V1.8C24.5 1.32261 24.3156 0.864773 23.9874 0.527208C23.6592 0.189642 23.2141 0 22.75 0H12.25C11.7859 0 11.3408 0.189642 11.0126 0.527208C10.6844 0.864773 10.5 1.32261 10.5 1.8V3.6H1.75C1.28587 3.6 0.840752 3.78964 0.512563 4.12721C0.184374 4.46477 0 4.92261 0 5.4C0 5.87739 0.184374 6.33523 0.512563 6.67279C0.840752 7.01036 1.28587 7.2 1.75 7.2H33.25C33.7141 7.2 34.1592 7.01036 34.4874 6.67279C34.8156 6.33523 35 5.87739 35 5.4C35 4.92261 34.8156 4.46477 34.4874 4.12721C34.1592 3.78964 33.7141 3.6 33.25 3.6Z" fill="#272423"/>
</svg>
