<svg width="83" height="83" viewBox="0 0 83 83" fill="none" xmlns="http://www.w3.org/2000/svg">
<path fill-rule="evenodd" clip-rule="evenodd" d="M41.8114 0.37085C52.6853 0.37085 63.1138 4.69048 70.8028 12.3795C78.4918 20.0685 82.8114 30.497 82.8114 41.3708C82.8114 64.0145 64.4551 82.3708 41.8114 82.3708C19.1677 82.3708 0.811401 64.0145 0.811401 41.3708C0.811401 18.7272 19.1677 0.37085 41.8114 0.37085ZM45.9114 45.4709H37.7114C27.5611 45.4709 18.8466 51.6184 15.0881 60.3939C21.0351 68.7332 30.7882 74.1709 41.8114 74.1709C52.8346 74.1709 62.5877 68.7332 68.5348 60.3933C64.7762 51.6184 56.0617 45.4709 45.9114 45.4709ZM41.8114 12.6708C35.0183 12.6708 29.5114 18.1777 29.5114 24.9708C29.5114 31.764 35.0183 37.2709 41.8114 37.2709C48.6045 37.2709 54.1114 31.764 54.1114 24.9708C54.1114 18.1777 48.6045 12.6708 41.8114 12.6708Z" fill="#E55E3A"/>
</svg>
