<svg width="51" height="51" viewBox="0 0 51 51" fill="none" xmlns="http://www.w3.org/2000/svg">
<path fill-rule="evenodd" clip-rule="evenodd" d="M25.4581 0.825701C32.0885 0.825701 38.4474 3.45962 43.1358 8.14803C47.8242 12.8364 50.4581 19.1953 50.4581 25.8257C50.4581 39.6328 39.2652 50.8257 25.4581 50.8257C11.651 50.8257 0.45813 39.6328 0.45813 25.8257C0.45813 12.0186 11.651 0.825701 25.4581 0.825701ZM27.9581 28.3257H22.9581C16.7689 28.3257 11.4552 32.0742 9.16344 37.4251C12.7897 42.51 18.7367 45.8257 25.4581 45.8257C32.1796 45.8257 38.1266 42.51 41.7529 37.4248C39.4611 32.0742 34.1474 28.3257 27.9581 28.3257ZM25.4581 8.3257C21.316 8.3257 17.9581 11.6836 17.9581 15.8257C17.9581 19.9678 21.316 23.3257 25.4581 23.3257C29.6003 23.3257 32.9581 19.9678 32.9581 15.8257C32.9581 11.6836 29.6003 8.3257 25.4581 8.3257Z" fill="#2A2C41"/>
</svg>
