<svg width="37" height="37" viewBox="0 0 37 37" fill="none" xmlns="http://www.w3.org/2000/svg">
<path d="M18.9944 0.627277C20.6387 0.719154 22.0073 1.49047 22.8328 3.0583L36.3426 29.8862C37.6524 32.5981 35.624 36.2472 32.2955 36.2998H5.08993C2.06047 36.2524 -0.425154 32.8685 1.05869 29.8566L14.8208 3.0294C15.0784 2.54779 15.1959 2.4085 15.4181 2.15584C16.3114 1.13704 17.2883 0.591712 18.9944 0.627277ZM18.7722 3.58881C18.2547 3.614 17.7809 3.89927 17.5226 4.34235C12.7683 13.2181 8.18491 22.1849 3.7379 31.214C3.32664 32.1217 4.03241 33.2864 5.06507 33.3353C14.1489 33.4798 23.2365 33.4798 32.3204 33.3353C33.3184 33.2879 34.0686 32.1617 33.6528 31.2236C29.2894 22.196 24.7912 13.2292 20.1205 4.35198C19.8448 3.86963 19.4403 3.57992 18.7722 3.58881Z" fill="#F39922"/>
<path d="M19.9013 24.7775H17.3795L17.1023 12.5898H20.1905L19.9013 24.7775ZM17.0179 28.5044C17.0179 28.0532 17.1663 27.6797 17.4639 27.3826C17.7621 27.0862 18.1681 26.9373 18.6826 26.9373C19.1978 26.9373 19.6038 27.0862 19.9013 27.3826C20.1988 27.6797 20.3479 28.0532 20.3479 28.5044C20.3479 28.9393 20.2026 29.3031 19.9133 29.5958C19.6233 29.8885 19.2136 30.0352 18.6826 30.0352C18.1515 30.0352 17.7418 29.8885 17.4518 29.5958C17.1626 29.3031 17.0179 28.9393 17.0179 28.5044Z" fill="#F39922"/>
</svg>
